<svg xmlns="http://www.w3.org/2000/svg" xmlns:xlink="http://www.w3.org/1999/xlink" width="160" height="160" viewBox="0 0 160 160" id="sapIllus-Dialog-SuccessCheckMark-Alt">
    <circle class="sapIllus_ObjectFillColor" style="fill:var(--sapIllus_ObjectFillColor)" cx="79.0022" cy="84.5367" r="41.9985"/>
    <ellipse class="sapIllus_BackgroundColor" style="fill:var(--sapIllus_BackgroundColor)" cx="78.9954" cy="145.5428" rx="36.9935" ry="5.9976"/>
    <path class="sapIllus_StrokeDetailColor" style="fill:var(--sapIllus_StrokeDetailColor)" d="M79.0022,127.5379a43.0036,43.0036,0,1,1,43.004-43.0033A43.0528,43.0528,0,0,1,79.0022,127.5379Zm0-85.0022A41.9984,41.9984,0,1,0,121.001,84.5344,42.046,42.046,0,0,0,79.0022,42.5357Z"/>
    <circle class="sapIllus_BrandColorSecondary" style="fill:var(--sapIllus_BrandColorSecondary)" cx="78.9996" cy="84.5374" r="30.9998"/>
    <path class="sapIllus_PatternShadow" style="fill:var(--sapIllus_PatternShadow)" d="M62.0735,110.42a31.0009,31.0009,0,0,0,42.8419-42.951Z"/>
    <path class="sapIllus_ObjectFillColor" style="fill:var(--sapIllus_ObjectFillColor)" d="M99.6135,71.7654l-1.8553-1.8507a1.27,1.27,0,0,0-1.7878,0L73.0173,92.8105a1.2665,1.2665,0,0,1-1.7878,0l-9.2077-9.1847a1.27,1.27,0,0,0-1.7876,0l-1.8552,1.85a1.2624,1.2624,0,0,0,0,1.7836L71.37,100.2178a1.07,1.07,0,0,0,1.5074,0l26.7358-26.669A1.2626,1.2626,0,0,0,99.6135,71.7654Z"/>
    <path class="sapIllus_Layering1" style="fill:var(--sapIllus_Layering1)" d="M18.4643,22.4347,36.5411,35.36c1.044.7466,2.0466-.9563,1.0131-1.6953L19.4774,20.7394c-1.0441-.7465-2.0466.9563-1.0131,1.6953Z"/>
    <path class="sapIllus_Layering1" style="fill:var(--sapIllus_Layering1)" d="M98.4664,19.178l5.4062-8.5052c.534-.84-.8089-1.6131-1.3407-.7765l-5.4061,8.5052c-.5341.84.8089,1.6131,1.3406.7765Z"/>
    <path class="sapIllus_AccentColor" style="fill:var(--sapIllus_AccentColor)" d="M121.8775,37.3387a16.853,16.853,0,0,1,6.2345,2.1128c.7851.4408,1.3969-.8156,1.3436-1.7589a6.0551,6.0551,0,0,1,2.2767-4.97c.6336-.5671.0712-1.3818-.6323-1.4728a12.138,12.138,0,0,1-5.9494-2.48.92.92,0,0,0-1.4946.38,49.5471,49.5471,0,0,1-2.551,6.89A.8787.8787,0,0,0,121.8775,37.3387Zm3.1242-6.5888a14.04,14.04,0,0,0,4.412,1.9013,7.9993,7.9993,0,0,0-1.7052,4.645,18.4716,18.4716,0,0,0-4.6049-1.4741A52.4874,52.4874,0,0,0,125.0017,30.75Z"/>
    <path class="sapIllus_Layering1" style="fill:var(--sapIllus_Layering1)" d="M151.6207,57.2245a6.5139,6.5139,0,0,0-8.2075-.4172,10.6778,10.6778,0,0,0-2.419,3.3547c-.6939,1.2879-1.35,2.5042-2.43,2.9555a3.3154,3.3154,0,0,1-2.91-.3887,10.2438,10.2438,0,0,1-2.6943-2.688,1.0776,1.0776,0,0,0-1.5329-.1994,1.1367,1.1367,0,0,0-.1951,1.5665,13.01,13.01,0,0,0,2.9394,3.0055q.1867.1279.3823.244a5.986,5.986,0,0,0,3.0413.8757,4.6467,4.6467,0,0,0,1.7965-.3487c1.7946-.75,2.71-2.4481,3.5216-3.9549a8.87,8.87,0,0,1,1.874-2.6855,4.3153,4.3153,0,0,1,5.4191.3832,1.0786,1.0786,0,0,0,1.54-.1287A1.1365,1.1365,0,0,0,151.6207,57.2245Z"/>
    <path class="sapIllus_AccentColor" style="fill:var(--sapIllus_AccentColor)" d="M17.9987,66.5365a5.9969,5.9969,0,1,1,5.9971-5.9971A6.0037,6.0037,0,0,1,17.9987,66.5365Zm0-10.457a4.46,4.46,0,1,0,4.46,4.46A4.4651,4.4651,0,0,0,17.9987,56.08Z"/>
    <rect class="sapIllus_AccentColor" style="fill:var(--sapIllus_AccentColor)" x="60.1203" y="12.6364" width="7.7604" height="7.7604" rx="1.0079" transform="translate(20.8558 -33.5573) rotate(34.7805)"/>
</svg>