<svg xmlns="http://www.w3.org/2000/svg" xmlns:xlink="http://www.w3.org/1999/xlink" width="160" height="160" viewBox="0 0 160 160" id="sapIllus-Dialog-UnableToLoad-Alt2">
    <circle class="sapIllus_ObjectFillColor" style="fill:var(--sapIllus_ObjectFillColor)" cx="79.8017" cy="77.7864" r="45.9938"/>
    <path class="sapIllus_Layering1" style="fill:var(--sapIllus_Layering1)" d="M61.3106,20.7913l-.4481-7.8872c-.0848-1.4922-2.34-1.5023-2.2544,0l.4482,7.8872c.0848,1.4922,2.34,1.5023,2.2543,0Z"/>
    <path class="sapIllus_Layering1" style="fill:var(--sapIllus_Layering1)" d="M31.9109,38.4057l-6.9442-2.8878c-1.3188-.5484-1.8929,1.6315-.5889,2.1738L31.3221,40.58c1.3188.5484,1.8929-1.6315.5888-2.1738Z"/>
    <path class="sapIllus_Layering1" style="fill:var(--sapIllus_Layering1)" d="M43.926,29.0768a1.13,1.13,0,0,1-.9208-.4717L36.27,19.2158a1.1294,1.1294,0,0,1,1.8395-1.311l6.7351,9.3894a1.1276,1.1276,0,0,1-.9186,1.7826Z"/>
    <path class="sapIllus_StrokeDetailColor" style="fill:var(--sapIllus_StrokeDetailColor)" d="M79.813,124.7565a46.97,46.97,0,1,1,46.97-46.97A47.0233,47.0233,0,0,1,79.813,124.7565Zm0-92.9751a46.0052,46.0052,0,1,0,46.0049,46.0048A46.0567,46.0567,0,0,0,79.813,31.7814Z"/>
    <path class="sapIllus_BrandColorSecondary" style="fill:var(--sapIllus_BrandColorSecondary)" d="M79.8017,43.756a35.0074,35.0074,0,1,0,35.0074,35.0074A35.0073,35.0073,0,0,0,79.8017,43.756Zm0,55.0486a4.0317,4.0317,0,1,1,3.9635-4.0311A3.9977,3.9977,0,0,1,79.8017,98.8046Zm3.9867-14.0475a.9942.9942,0,0,1-.9942.9941H76.8486a.9941.9941,0,0,1-.9941-.9941V57.7509a.9942.9942,0,0,1,.9941-.9942h5.9456a.9942.9942,0,0,1,.9942.9942Z"/>
    <path class="sapIllus_PatternShadow" style="fill:var(--sapIllus_PatternShadow)" d="M79.8017,43.756a35.0045,35.0045,0,0,0-22.4176,61.8912l44.8943-53.7164A34.86,34.86,0,0,0,79.8017,43.756Z"/>
    <ellipse class="sapIllus_BackgroundColor" style="fill:var(--sapIllus_BackgroundColor)" cx="79.8055" cy="145.7566" rx="38" ry="6"/>
</svg>