<svg xmlns="http://www.w3.org/2000/svg" xmlns:xlink="http://www.w3.org/1999/xlink" width="160" height="160" viewBox="0 0 160 160" id="sapIllus-Dialog-UnableToLoad-Alt">
    <path class="sapIllus_ObjectFillColor" style="fill:var(--sapIllus_ObjectFillColor)" d="M80.5,34.1171A45.3829,45.3829,0,1,0,125.8828,79.5,45.4338,45.4338,0,0,0,80.5,34.1171ZM80.5,114A34.5,34.5,0,1,1,115,79.5,34.5,34.5,0,0,1,80.5,114Z"/>
    <circle class="sapIllus_Layering1" style="fill:var(--sapIllus_Layering1)" cx="80.5" cy="79.5" r="34.5"/>
    <ellipse class="sapIllus_BackgroundColor" style="fill:var(--sapIllus_BackgroundColor)" cx="80" cy="147" rx="37" ry="6"/>
    <path class="sapIllus_StrokeDetailColor" style="fill:var(--sapIllus_StrokeDetailColor)" d="M80.5,33A46.5,46.5,0,1,0,127,79.5,46.5524,46.5524,0,0,0,80.5,33Zm0,91.8829A45.3829,45.3829,0,1,1,125.8828,79.5,45.4343,45.4343,0,0,1,80.5,124.8829Z"/>
    <path class="sapIllus_Layering1" style="fill:var(--sapIllus_Layering1)" d="M60.9985,24.7178a1.0014,1.0014,0,0,1-1.0014-1.0009l-.003-7.7149A1.0017,1.0017,0,0,1,60.9956,15h0a1.0014,1.0014,0,0,1,1.0015,1.001L62,23.7159a1.0016,1.0016,0,0,1-1.0015,1.0019Z"/>
    <path class="sapIllus_Layering1" style="fill:var(--sapIllus_Layering1)" d="M32.6348,44.3431a1.0019,1.0019,0,0,1-.3418-.0606L25.0518,41.65a1,1,0,0,1,.6835-1.88l7.2413,2.6323a1.0005,1.0005,0,0,1-.3418,1.9405Z"/>
    <path class="sapIllus_Layering1" style="fill:var(--sapIllus_Layering1)" d="M44.5342,31.52a1,1,0,0,1-.82-.4263L36.9121,21.39a1,1,0,0,1,1.6387-1.1474l6.8017,9.7041a1,1,0,0,1-.8183,1.5737Z"/>
    <path class="sapIllus_PatternHighlight" style="fill:var(--sapIllus_PatternHighlight)" d="M80.5,114a34.5006,34.5006,0,0,0,22.4263-60.7175l-44.1372,53.031A34.3563,34.3563,0,0,0,80.5,114Z"/>
    <ellipse class="sapIllus_ObjectFillColor" style="fill:var(--sapIllus_ObjectFillColor)" cx="80.003" cy="95.995" rx="4.003" ry="3.9966"/>
    <rect class="sapIllus_ObjectFillColor" style="fill:var(--sapIllus_ObjectFillColor)" x="76.0062" y="59" width="8" height="29" rx="0.9941"/>
</svg>
