<svg xmlns="http://www.w3.org/2000/svg" xmlns:xlink="http://www.w3.org/1999/xlink" width="160" height="160" viewBox="0 0 160 160" id="sapIllus-Dialog-NoSearchResults-Alt">
    <path class="sapIllus_BrandColorSecondary" style="fill:var(--sapIllus_BrandColorSecondary)" d="M75.6393,72.6277h0a5.7882,5.7882,0,0,1,5.7882,5.7882v63.8808a.6821.6821,0,0,1-.6821.6821H70.5333a.6821.6821,0,0,1-.6821-.6821V78.4158A5.7881,5.7881,0,0,1,75.6393,72.6277Z" transform="translate(186.8465 178.3426) rotate(157.4423)"/>
    <rect class="sapIllus_BackgroundColor" style="fill:var(--sapIllus_BackgroundColor)" x="115.6987" y="64.7418" width="12.9972" height="82.9959" rx="3.0028" transform="translate(244.3946 212.4795) rotate(180)"/>
    <circle class="sapIllus_BrandColorSecondary" style="fill:var(--sapIllus_BrandColorSecondary)" cx="53.2062" cy="51.2371" r="30.4995"/>
    <circle class="sapIllus_ObjectFillColor" style="fill:var(--sapIllus_ObjectFillColor)" cx="53.2027" cy="51.2286" r="22.5028"/>
    <path class="sapIllus_ObjectFillColor" style="fill:var(--sapIllus_ObjectFillColor)" d="M99.3013,102.0924c-14.7124.0026-29.6034.0067-31.0482.0223-1.4191.0153-2.8383.0449-4.2563.11-1.3065.06-4.9865.3515-5.5327.4156a5.0988,5.0988,0,0,0-3.5992,1.6554,3.7775,3.7775,0,0,0-.393,3.8275,2.7248,2.7248,0,0,0,1.4724,1.1521,21.8331,21.8331,0,0,0,4.8653.68c-.1808.2933-.5176.4482-.7508.69a3.2239,3.2239,0,0,0-.6007.959,3.6673,3.6673,0,0,0-.2323,2.1607,3.7042,3.7042,0,0,0,3.2,2.9437c-.3817-.0579-.805.61-.9105.8879a2.8358,2.8358,0,0,0,.0044,1.9628,4.0957,4.0957,0,0,0,2.74,2.31c-.3292-.0962-.74.7431-.8267.9753a3.0728,3.0728,0,0,0-.0851,1.728,3.7786,3.7786,0,0,0,1.7492,2.5381,3.2745,3.2745,0,0,0,1.646.2519c4.1589-.228,8.3258-.4145,12.4924-.4538.6737-.0064,9.7949-.0016,20.0657.0048Z"/>
    <path class="sapIllus_StrokeDetailColor" style="fill:var(--sapIllus_StrokeDetailColor)" d="M58.3593,81.2981l.6017,1.4876s7.887,1.6678,11.8014-1.8116l-1.5685-3.7569a42.5685,42.5685,0,0,1-10.8346,4.0809Z"/>
    <path class="sapIllus_PatternShadow" style="fill:var(--sapIllus_PatternShadow)" d="M83.604,48.7488a30.4873,30.4873,0,0,0-2.052-8.7908,31.4981,31.4981,0,0,0-10.261-13.28,41.6807,41.6807,0,0,1,4.889,14.968A33.2861,33.2861,0,0,1,75.408,56.06a27.1478,27.1478,0,0,1-5.9361,10.7211,26.7432,26.7432,0,0,1-2.3264,2.1138,27.1776,27.1776,0,0,1-4.0315,2.5711c-5.6469,2.871-13.929,2.9061-13.929,2.9061a46.4869,46.4869,0,0,1-20.4393-4.909A30.4676,30.4676,0,0,0,40.4979,78.97,30.33,30.33,0,0,0,51.359,81.685a34.4422,34.4422,0,0,0,4.0854-.0218c.7787-.055,1.4477-.1387,1.7407-.1757a12.0985,12.0985,0,0,0,1.2867-.2031c.4958-.1148.69-.2062,1.4864-.467.6726-.22,1.0274-.3168,1.3958-.4294a53.3374,53.3374,0,0,0,5.7047-2.2154A22.5516,22.5516,0,0,0,70.1112,76.63a20.7681,20.7681,0,0,0,2.0239-1.4742,35.6438,35.6438,0,0,0,3.7411-3.516,34.5748,34.5748,0,0,0,5.8822-9.66A30.6082,30.6082,0,0,0,83.604,48.7488Z"/>
    <path class="sapIllus_StrokeDetailColor" style="fill:var(--sapIllus_StrokeDetailColor)" d="M43.187,64a.5.5,0,0,1-.3183-.1143,17.0536,17.0536,0,0,1-6.1631-11.5991.5.5,0,0,1,.9961-.0957,16.0537,16.0537,0,0,0,5.8037,10.9234A.5.5,0,0,1,43.187,64Z"/>
    <path class="sapIllus_StrokeDetailColor" style="fill:var(--sapIllus_StrokeDetailColor)" d="M58.5092,103.0255c.5335-.0629,4.18-.3516,5.5061-.413,1.2361-.0568,2.5843-.0925,4.2415-.11,1.4451-.0151,16.4324-.02,31.0444-.0221v-.7759c-14.6145.0024-29.6042.0069-31.052.022-1.6679.0182-3.0244.0531-4.2693.1114-1.3369.0606-5.0212.3532-5.5615.4176a5.2626,5.2626,0,0,0-3.8694,1.8157,4.1485,4.1485,0,0,0-.4152,4.2429,3.11,3.11,0,0,0,1.6777,1.3261,12.8472,12.8472,0,0,0,3.5193.5767q.2886.0206.5737.0417c-.0432.0379-.085.0766-.1245.1175a3.5631,3.5631,0,0,0-.679,1.0753,4.08,4.08,0,0,0-.2561,2.3909,4.2135,4.2135,0,0,0,2.5669,3.0258.4309.4309,0,0,0,.0374.0658,2.63,2.63,0,0,0-.2974.5254,3.2373,3.2373,0,0,0,.0037,2.2347,4.21,4.21,0,0,0,2.2947,2.2893,3.42,3.42,0,0,0-.38.7245,3.47,3.47,0,0,0-.1008,1.95,4.1682,4.1682,0,0,0,1.9543,2.8,3.3279,3.3279,0,0,0,1.4839.3023c.1279,0,.2485-.0045.3569-.01,2.98-.1634,6.7736-.3513,10.6636-.4265l.326.6971,13.4654,2.2387q-.6174-1.4814-1.2348-2.9629c2.8381.0015,6.0264.0035,9.3169.0056v-.776c-10.153-.0065-19.3935-.0117-20.0691-.0052-4.5224.0424-9.0617.2653-12.5105.4547a2.8357,2.8357,0,0,1-1.4511-.2114,3.4386,3.4386,0,0,1-1.5437-2.275,2.4121,2.4121,0,0,1,.42-2.1319l7.5367-.2052a.4381.4381,0,0,0-.0121-.8761H71.66l-7.3522.2a3.7272,3.7272,0,0,1-2.4243-2.05,2.4494,2.4494,0,0,1-.0053-1.6914,1.6786,1.6786,0,0,1,.4306-.6006l7.647-.194a.4384.4384,0,0,0,.427-.4491.4218.4218,0,0,0-.4492-.4269l-7.8247.1985a3.356,3.356,0,0,1-2.5025-2.5745,3.2783,3.2783,0,0,1,.209-1.93,2.7937,2.7937,0,0,1,.5237-.8434,2.2966,2.2966,0,0,1,.2622-.2182,3.0706,3.0706,0,0,0,.3455-.3056l10.2238.1409h.0061a.438.438,0,0,0,.0059-.876l-10.8639-.15a.3313.3313,0,0,0-.0966.01c-.2785-.024-.5537-.0527-.8364-.0725a12.2961,12.2961,0,0,1-3.3076-.532,2.34,2.34,0,0,1-1.2678-.979,3.39,3.39,0,0,1,.372-3.4117A4.8036,4.8036,0,0,1,58.5092,103.0255Z"/>
    <path class="sapIllus_Layering2" style="fill:var(--sapIllus_Layering2)" d="M101.6614,98.7263h27.0439a0,0,0,0,1,0,0v32.0144a0,0,0,0,1,0,0H101.6614a2.9564,2.9564,0,0,1-2.9564-2.9564V101.6826A2.9564,2.9564,0,0,1,101.6614,98.7263Z"/>
    <rect class="sapIllus_ObjectFillColor" style="fill:var(--sapIllus_ObjectFillColor)" x="106.7063" y="98.7263" width="1.9956" height="32.0144"/>
    <path class="sapIllus_Layering1" style="fill:var(--sapIllus_Layering1)" d="M109.94,30.735l8.2013-8.555a2.0785,2.0785,0,0,0,0-2.8517,1.8769,1.8769,0,0,0-2.7337,0l-8.2013,8.555-8.2013-8.555a1.877,1.877,0,0,0-2.7338,0,2.0785,2.0785,0,0,0,0,2.8517l8.2013,8.555L96.2714,39.29a2.0785,2.0785,0,0,0,0,2.8517,1.877,1.877,0,0,0,2.7338,0l8.2013-8.555,8.2013,8.555a1.8769,1.8769,0,0,0,2.7337,0,2.0785,2.0785,0,0,0,0-2.8517Z"/>
</svg>