<svg xmlns="http://www.w3.org/2000/svg" xmlns:xlink="http://www.w3.org/1999/xlink" width="320" height="240" viewBox="0 0 320 240" id="sapIllus-Scene-NoSearchResults-Alt">
    <path class="sapIllus_BackgroundColor" style="fill:var(--sapIllus_BackgroundColor)" d="M297.165,91.5791c0-19.0678-10.8213-37.5987-28.9785-49.0609-19.8433-12.5268-45.4337-12.5077-69.14-12.5567-19.2573-.04-38.5143-.2412-57.7721-.18-18.2574.0579-37.2855-.8632-55.39,1.43C50.3935,35.7056,23.1667,60.9663,23.1667,91.58c0,17.1371,8.9767,34.0916,23.9526,45.6748,11.3559,8.7832,26.5629,13.59,42.0889,15.85,2.4013,2.3772,3.5263,5.5625,3.4284,9.6371a11.5273,11.5273,0,0,1-7.4518,9.7642H79.0421c-14.2465,0-30.3228-1.84-39.66,11.0311a25.14,25.14,0,0,0,.3745,29.6342c8.002,10.95,20.3391,11.4417,33.1186,11.4417,46.518,0,92.8669.0311,139.5313.0642A188.2008,188.2008,0,0,0,234.601,223.44c11.1855-1.3595,21.8457-5.1163,25.4451-16.785,5.11-16.5654-7.5256-30.3389-23.4139-33.6354a90.8739,90.8739,0,0,0-12.1449-1.5967c-4.3915-1.2164-7.1769-4.1492-7.3708-8.0623-.2821-5.6965,3.08-9.7833,9.14-11.0029q1.2288-.15,2.4513-.325c.3561-.0247.7108-.0506,1.0812-.0579,0,0-.2128-.0043-.6121-.012C265.32,146.6271,297.1654,124.9493,297.165,91.5791Z"/>
    <path class="sapIllus_StrokeDetailColor" style="fill:var(--sapIllus_StrokeDetailColor)" d="M194.34,22.5623,190.3243,12.29a1,1,0,0,0-1.2954-.5673L183.88,13.7359a1,1,0,0,0-.5674,1.2954l.3921,1.0032-15.856,6.1981a1,1,0,0,0-.5672,1.2954l.15.3837L164.8016,24.94a1,1,0,0,0-.5674,1.2954l1.5869,4.06a1,1,0,0,0,1.2954.5673l2.0711-.81-6.5609,21.2417.955.2949,6.554-21.22a1.0008,1.0008,0,0,0,.0934.0645l6.715,21.0982.9531-.3037-6.6178-20.7933L186.94,24.3126l.3874.9908a1,1,0,0,0,1.2954.5673l5.1494-2.0129A1,1,0,0,0,194.34,22.5623Z"/>
    <polygon class="sapIllus_ObjectFillColor" style="fill:var(--sapIllus_ObjectFillColor)" points="183.668 15.941 186.958 24.36 185.149 25.175 183.517 16.07 183.668 15.941"/>
    <polygon class="sapIllus_ObjectFillColor" style="fill:var(--sapIllus_ObjectFillColor)" points="167.24 23.412 169.797 29.817 168.721 30.235 167.123 23.513 167.24 23.412"/>
    <path class="sapIllus_ObjectFillColor" style="fill:var(--sapIllus_ObjectFillColor)" d="M216.1344,84.5729a.46.46,0,0,1-.2773-.0922l-1.0421,2.6135a2.2438,2.2438,0,0,0,1.1453,2.8887,2.0921,2.0921,0,0,0,2.7729-1.1932l1.6816-4.2168Z"/>
    <path class="sapIllus_ObjectFillColor" style="fill:var(--sapIllus_ObjectFillColor)" d="M230.81,45.2061a11.9954,11.9954,0,0,0-7.6825,22l-1.8685,4.5285,4.5187.1919L227.039,68.85A11.9948,11.9948,0,1,0,230.81,45.2061Zm6.8166,12.7085a7.9993,7.9993,0,1,1-7.1987-8.7271A8,8,0,0,1,237.6263,57.9146Z"/>
    <path class="sapIllus_ObjectFillColor" style="fill:var(--sapIllus_ObjectFillColor)" d="M228.7832,73.1334a2.607,2.607,0,0,0-1.7822-.7637c-.0916-.01-.3688-.0324-.71-.0582-.064.175-.4522-.032-.7049-.032l-4.4551-.0858c-.3389,0-.8706.1823-.87-.0678-5.8535.0052-23.2867.05-27.885.0541v11.8c4.1387-.0606,18.9659-.3958,23.21-.4631l-.0235.0559h4.7166a.4961.4961,0,0,1,.3035.1011c.7734.0323,1.547.0612,2.32.1007a1.73,1.73,0,0,0,.815-.1162,1.7484,1.7484,0,0,0,.8662-1.1709,1.3252,1.3252,0,0,0-.0422-.7972c-.0429-.1071-.2464-.4943-.4093-.45a1.9965,1.9965,0,0,0,1.357-1.0655,1.2245,1.2245,0,0,0,.0022-.9055c-.0522-.1283-.2619-.4364-.4509-.41a1.8637,1.8637,0,0,0,1.5843-1.3581,1.5855,1.5855,0,0,0-.1149-.9967,1.4786,1.4786,0,0,0-.2976-.4425c-.1153-.1115-.2822-.183-.3716-.3183a11.5475,11.5475,0,0,0,2.4091-.3137,1.3387,1.3387,0,0,0,.7291-.5315A1.6441,1.6441,0,0,0,228.7832,73.1334Z"/>
    <path class="sapIllus_ObjectFillColor" style="fill:var(--sapIllus_ObjectFillColor)" d="M193.1539,86.1329V71.2919l.001-.0048V51.9957a1.4715,1.4715,0,0,0-1.5-1.3474H147.3739c-.9552,0-1.225.5543-1.225,1.4139v172.579l47.006.0238V86.1377Z"/>
    <path class="sapIllus_Layering1" style="fill:var(--sapIllus_Layering1)" d="M177.1542,140.6485h20.9971a1.0062,1.0062,0,0,1,1.0062,1.0062v82.99a0,0,0,0,1,0,0h-23.01a0,0,0,0,1,0,0v-82.99A1.0062,1.0062,0,0,1,177.1542,140.6485Z"/>
    <path class="sapIllus_ObjectFillColor" style="fill:var(--sapIllus_ObjectFillColor)" d="M110.4743,95.9392a6.614,6.614,0,0,1-1.9829-1.5092c-1.8626-2.1009-2.3852-5.1664-4.3544-7.1677a6.51,6.51,0,0,0-11.18,4.6362c-.0151,1.4185,1.5921,4.1888-.5053,4.6844-2.4456.5779-5.54-2.9782-7.4978-4.0254-2.2326-1.1942-5.0914-1.8112-7.2245-.4471a7.8146,7.8146,0,0,0-2.862,4.4331,19.8721,19.8721,0,0,1-1.3877,4.19c-.8592,1.45-1.819.8681-3.2128.3407a3.2972,3.2972,0,0,0-2.7823.1469,3.352,3.352,0,0,0-1.437,3.45c.689,3.9385,6.0006,5.6191,9.3636,6.18a23.4555,23.4555,0,0,0,12.4964-1.4873,24.0124,24.0124,0,0,1,5.6155-1.9573,15.3193,15.3193,0,0,1,4.9275.3636c5.7975,1.1235,14.4615,4.2495,19.5536-.2754,2.1883-1.9445,2.96-5.6267,1.0613-7.8551C116.9371,97.1415,113.32,97.3914,110.4743,95.9392Z"/>
    <path class="sapIllus_ObjectFillColor" style="fill:var(--sapIllus_ObjectFillColor)" d="M243.7661,104.1758q.0759-.0357.1507-.0736c2.7363-1.3877,2.9231-4.6942,4.9821-6.7049a5.3578,5.3578,0,0,1,9.0913,3.5116,19.8238,19.8238,0,0,0,.0361,3.49c.943,3.8888,5.5235.2585,7.4872-.2689,1.5763-.4234,3.6136.04,4.16,1.578.4012,1.13-.006,2.7016,1.0187,3.324a2.6731,2.6731,0,0,0,2.0027-.0028,6.4953,6.4953,0,0,1,4.6455.28c1.3911.7668,2.2377,2.6569,1.4289,4.0239a3.7466,3.7466,0,0,1-1.349,1.2321c-5.4715,3.2884-12.0139-.411-17.7075-.954-5.3584-.511-10.5292,1.2662-15.8369,1.47a8.8787,8.8787,0,0,1-6.5332-2.0184c-1.6918-1.62-2.199-4.5873-.6146-6.3126C238.4419,104.8846,241.4726,105.2561,243.7661,104.1758Z"/>
    <path class="sapIllus_BrandColorSecondary" style="fill:var(--sapIllus_BrandColorSecondary)" d="M162.1553,191.5637V105.5623a1,1,0,0,0-.7208-.96L113.4019,90.6467a.9974.9974,0,0,0-1.2792.96c.0105,2.5827.0326,8.035.0326,8.23v86.4548a.9993.9993,0,0,1-.4185.8131l-20.42,14.5843a.3853.3853,0,0,0-.1615.3136v22.262a.3892.3892,0,0,0,.3866.3877l70.2223-.0312a.3863.3863,0,0,0,.3911-.3857Z"/>
    <path class="sapIllus_PatternHighlight" style="fill:var(--sapIllus_PatternHighlight)" d="M113.402,90.6518a.9972.9972,0,0,0-1.2792.9592c.0105,2.5827.0325,8.035.0325,8.23v86.7707a.3852.3852,0,0,1-.1614.3135l-20.677,14.7679a.3854.3854,0,0,0-.1616.3139v22.2616a.39.39,0,0,0,.3864.388l30.7764-.0137,34.9727-121.2391Z"/>
    <path class="sapIllus_ObjectFillColor" style="fill:var(--sapIllus_ObjectFillColor)" d="M87.9672,107.142h0a5.5221,5.5221,0,0,1,5.5221,5.5221V174.26a0,0,0,0,1,0,0H82.4451a0,0,0,0,1,0,0V112.6641A5.5221,5.5221,0,0,1,87.9672,107.142Z" transform="translate(223.1792 236.8916) rotate(157.4423)"/>
    <path class="sapIllus_ObjectFillColor" style="fill:var(--sapIllus_ObjectFillColor)" d="M94.5071,83.9217a28.498,28.498,0,1,0-25.6453,31.09A28.4981,28.4981,0,0,0,94.5071,83.9217Zm-26.4094,23.127A20.4985,20.4985,0,1,1,86.5444,84.6859,20.4987,20.4987,0,0,1,68.0977,107.0487Z"/>
    <rect class="sapIllus_Layering1" style="fill:var(--sapIllus_Layering1)" x="136.6493" y="122.1504" width="17" height="39.9941" rx="1.0062"/>
    <path class="sapIllus_ObjectFillColor" style="fill:var(--sapIllus_ObjectFillColor)" d="M152.65,162.6506h-15a1.5111,1.5111,0,0,1-1.5-1.5187V123.1628a1.5112,1.5112,0,0,1,1.5-1.5188h15a1.5111,1.5111,0,0,1,1.5,1.5188v37.9691A1.511,1.511,0,0,1,152.65,162.6506Zm-15-39.9941a.5038.5038,0,0,0-.5.5063v37.9691a.5038.5038,0,0,0,.5.5062h15a.5038.5038,0,0,0,.5-.5062V123.1628a.5038.5038,0,0,0-.5-.5063Z"/>
    <path class="sapIllus_ObjectFillColor" style="fill:var(--sapIllus_ObjectFillColor)" d="M153.4535,157.0394c-2.5467.0292-51.784.1708-53.6626.2562-5.0564.23-10.1173.4324-15.1692.7111a3.9535,3.9535,0,0,1-1.9994-.3079,4.6191,4.6191,0,0,1-2.1248-3.1029,3.7806,3.7806,0,0,1,.1033-2.1127c.1056-.2838.6043-1.31,1.0042-1.1924a4.984,4.984,0,0,1-3.329-2.8236,3.49,3.49,0,0,1-.0052-2.4c.128-.34.6422-1.1563,1.106-1.0855a4.6985,4.6985,0,0,1-3.8868-3.5988,4.5115,4.5115,0,0,1,.2823-2.6416,3.9414,3.9414,0,0,1,.73-1.1725c.2831-.2957.6922-.485.9118-.8436-1.9342-.2345-4.0585-.152-5.91-.8313a3.3134,3.3134,0,0,1-1.7887-1.4086,4.6433,4.6433,0,0,1,.4774-4.6793c.9492-1.3457,2.8316-1.8417,4.3721-2.0239.6635-.0784,5.1338-.4343,6.7209-.508,1.7223-.08,3.4462-.1163,5.17-.135,3.4447-.0375,62.9073.063,66.9977-.0372"/>
    <path class="sapIllus_Layering2" style="fill:var(--sapIllus_Layering2)" d="M210.76,10.2511a2.9907,2.9907,0,0,1,.8512.0493c-.3-.0616.34-1.5025.4388-1.6722a3.3072,3.3072,0,0,1,1.4709-1.359,2.93,2.93,0,0,1,3.2095.6239c.8762.7572,1.4129,1.925,2.48,2.4539a.2259.2259,0,0,0,.1439.033.2351.2351,0,0,0,.0976-.059,3.3082,3.3082,0,0,1,1.9571-.86,3.0862,3.0862,0,0,1,3.11,1.9666,3.413,3.413,0,0,0,.2919.7693c.5674.8767,1.6777.4623,2.4442.1825,3.1368-1.1449,4.7015,4.9563.26,4.2326-1.1841-.1929-2.4139-.5118-3.61-.5886a26.0572,26.0572,0,0,0-3.3886.0583c-2.4343.1651-4.8424.5782-7.2676.8307-1.6887.176-3.7579-.1529-4.8235-1.6213a3.1791,3.1791,0,0,1,2.3336-5.04Z"/>
    <path class="sapIllus_ObjectFillColor" style="fill:var(--sapIllus_ObjectFillColor)" d="M92.055,191.2127a9.73,9.73,0,0,0-2.7705.16c.9771-.2-1.106-4.8907-1.4283-5.443a10.7667,10.7667,0,0,0-4.788-4.4237c-3.7341-1.6845-7.464-.5466-10.4468,2.0311-2.8519,2.4645-4.5989,6.2657-8.0737,7.9872a.735.735,0,0,1-.4686.1075.7673.7673,0,0,1-.3174-.1919,10.7676,10.7676,0,0,0-6.37-2.8,10.0459,10.0459,0,0,0-10.1244,6.4013,11.1055,11.1055,0,0,1-.95,2.5042c-1.8467,2.8538-5.4608,1.5047-7.9556.5941-10.21-3.7269-15.3037,16.1328-.8476,13.7771,3.854-.628,7.857-1.6659,11.7511-1.916a84.8779,84.8779,0,0,1,11.03.19c7.9237.5376,15.762,1.882,23.6561,2.7042,5.4968.5726,12.232-.4978,15.7-5.2775a10.3477,10.3477,0,0,0-7.5959-16.4045Z"/>
    <path class="sapIllus_AccentColor" style="fill:var(--sapIllus_AccentColor)" d="M171.15,214.6441h13a1,1,0,0,1,1,1v9.0031a0,0,0,0,1,0,0h-15a0,0,0,0,1,0,0v-9.0031A1,1,0,0,1,171.15,214.6441Z"/>
    <path class="sapIllus_Layering2" style="fill:var(--sapIllus_Layering2)" d="M219.15,224.6474h-34V171.6865a1.3106,1.3106,0,0,1,.583-.9162l32.2791-16.05a.8253.8253,0,0,1,1.1379.8514Z"/>
    <path class="sapIllus_ObjectFillColor" style="fill:var(--sapIllus_ObjectFillColor)" d="M107.974,204.664h9.3891a.8054.8054,0,0,1,.8054.8054v19.1872a0,0,0,0,1,0,0h-11a0,0,0,0,1,0,0V205.4694A.8054.8054,0,0,1,107.974,204.664Z"/>
    <circle class="sapIllus_BrandColorSecondary" style="fill:var(--sapIllus_BrandColorSecondary)" cx="110.6532" cy="215.1441" r="1.4999"/>
    <path class="sapIllus_ObjectFillColor" style="fill:var(--sapIllus_ObjectFillColor)" d="M181.1532,146.65h3.0014a.9993.9993,0,0,1,.9993.9993v3.9935a0,0,0,0,1,0,0h-5a0,0,0,0,1,0,0v-3.9935A.9993.9993,0,0,1,181.1532,146.65Z"/>
    <polygon class="sapIllus_StrokeDetailColor" style="fill:var(--sapIllus_StrokeDetailColor)" points="221.483 83.251 221.416 83.402 216.917 83.407 217.061 83.05 221.483 83.251"/>
    <path class="sapIllus_StrokeDetailColor" style="fill:var(--sapIllus_StrokeDetailColor)" d="M230.4755,48.69a8.4993,8.4993,0,0,0-1.624,16.9209c.2744.0263.5479.04.8184.04a8.5,8.5,0,0,0,.8056-16.96Zm6.6524,9.1767A7.4983,7.4983,0,1,1,229.65,49.65q.3632,0,.7294.0347a7.497,7.497,0,0,1,6.7481,8.1816Z"/>
    <path class="sapIllus_StrokeDetailColor" style="fill:var(--sapIllus_StrokeDetailColor)" d="M239.3056,49.1966a12.4991,12.4991,0,1,0-16.7933,18.188L220.75,71.626c-2.9924.0027-9.2363.0166-14.9113.03-6.2159.0146-11.9541.0288-12.6827.0239l-.0039,1c.7188.0014,6.4717-.01,12.69-.0239,7.46-.0171,15.9121-.0357,16.6455-.0289.6631.0069,1.3262.02,1.9883.05.6035.0274,2.331.1612,2.5722.189a1.921,1.921,0,0,1,1.3487.5605,1.2231,1.2231,0,0,1,.1562,1.2227.7952.7952,0,0,1-.4277.31,5.6172,5.6172,0,0,1-1.4756.228c-.2393.0166-.4775.0327-.708.06l-.7852.0928.0017.0029-4.1049.0581a.5.5,0,0,0,.0068,1h.0068l4.8295-.0684.014.0113a.691.691,0,0,1,.0879.07.9526.9526,0,0,1,.1807.2919,1.1525,1.1525,0,0,1,.0781.6934,1.3006,1.3006,0,0,1-1.0908.9658h-.002l.0007.0044-3.43-.0868a.5249.5249,0,0,0-.5127.4873.5.5,0,0,0,.4873.5127l3.4423.0871a.496.496,0,0,1,.05.08.7763.7763,0,0,1-.0039.5488,1.4428,1.4428,0,0,1-.9574.759l-3.2123-.0877h-.0137a.5.5,0,0,0-.0137,1l3.2415.0884a.96.96,0,0,1,.0552.1109.8867.8867,0,0,1,.0195.5059,1.2741,1.2741,0,0,1-.5566.8335,1.0581,1.0581,0,0,1-.5293.0659c-1.4561-.0776-2.9151-.14-4.3731-.2026l-1.5156-.0655c-.3526-.0176-4.61.0767-11.586.231-5.6679.125-12.1005.2617-12.5849.251l-.0332.999c.03.001.0791.0014.1455.0014,1.0625,0,6.626-.1225,12.4951-.2519,3.7893-.0835,7.6655-.1693,9.82-.2094l-1.2449,2.9967a2.6215,2.6215,0,0,0,4.8418,2.0117l2.0159-4.8537c.6555.03,1.3116.0561,1.9665.0913a2.0938,2.0938,0,0,0,1.0215-.1665,2.2494,2.2494,0,0,0,1.0918-1.5088,1.8883,1.8883,0,0,0-.06-1.0864c-.0108-.0293-.0225-.0586-.0352-.0874a2.1743,2.1743,0,0,0,.9375-1.0728,1.7813,1.7813,0,0,0,.001-1.2612l-.0069-.0181a2.2491,2.2491,0,0,0,1.1084-1.4692,2.1557,2.1557,0,0,0-.1406-1.2983q-.0323-.074-.0674-.1421a5.4884,5.4884,0,0,0,1.4336-.2617,1.7761,1.7761,0,0,0,.959-.753,2.2131,2.2131,0,0,0-.2139-2.3086,2.7938,2.7938,0,0,0-2.0429-.9668c-.1085-.0125-.4256-.0394-.81-.0695l.9941-2.393c.3709.0721.7417.1448,1.1227.1814q.6064.0587,1.2031.0581a12.5,12.5,0,0,0,9.6328-20.4536Zm-21.034,39.4561a1.6212,1.6212,0,1,1-2.9942-1.2441l1.1431-2.7522,2.7331,1.8727Zm7.031-16.9263c-.3162-.0217-.6031-.04-.782-.048-.6738-.03-1.3486-.0444-2.0234-.0513-.0953-.0009-.3269-.0014-.6644-.0015l1.3683-3.2944a14.7059,14.7059,0,0,0,2.6968,1.9623Zm15.8067-13.478A11.4977,11.4977,0,1,1,229.6425,45.65c.3711,0,.7452.0181,1.1192.0537a11.498,11.498,0,0,1,10.3476,12.545Z"/>
    <path class="sapIllus_AccentColor" style="fill:var(--sapIllus_AccentColor)" d="M193.1549,83.6526h4a0,0,0,0,1,0,0v5a1,1,0,0,1-1,1h-3a0,0,0,0,1,0,0v-6A0,0,0,0,1,193.1549,83.6526Z"/>
    <path class="sapIllus_Layering1" style="fill:var(--sapIllus_Layering1)" d="M192.1562,81.6464h6.5978a1.3988,1.3988,0,0,1,1.3988,1.3988v.2029a1.3988,1.3988,0,0,1-1.3988,1.3988h-6.5978a0,0,0,0,1,0,0v-3A0,0,0,0,1,192.1562,81.6464Z"/>
    <path class="sapIllus_StrokeDetailColor" style="fill:var(--sapIllus_StrokeDetailColor)" d="M87.0423,84.6378a20.9971,20.9971,0,1,0-20.94,23.0064c.6777,0,1.36-.0323,2.0439-.0982A21.0227,21.0227,0,0,0,87.0423,84.6378ZM68.05,106.5509A19.9993,19.9993,0,1,1,86.0462,84.7335,19.8735,19.8735,0,0,1,68.05,106.5509Z"/>
    <path class="sapIllus_StrokeDetailColor" style="fill:var(--sapIllus_StrokeDetailColor)" d="M138.71,156.6c-15.9024.0586-37.6826.1387-38.9414.1958l-4.0332.18c-3.7149.1636-7.4307.3272-11.1416.5318a3.5669,3.5669,0,0,1-1.7471-.2554,4.1729,4.1729,0,0,1-1.8613-2.7647,3.2755,3.2755,0,0,1,.084-1.83,2.8355,2.8355,0,0,1,.52-.8667.5808.5808,0,0,0,.0769-.0132l8.7688-.2388a.5.5,0,0,0-.0137-1h-.0136l-8.7592.2385a4.4929,4.4929,0,0,1-2.903-2.4821,2.993,2.993,0,0,1-.0068-2.0513,2.2292,2.2292,0,0,1,.4834-.7048l9.3691-.2376a.5.5,0,0,0,.4874-.5127.5312.5312,0,0,0-.5127-.4873l-8.9989.2282a.4843.4843,0,0,0-.1144-.0417,4.1948,4.1948,0,0,1-3.4717-3.2046,4.01,4.01,0,0,1,.252-2.3471,3.4231,3.4231,0,0,1,.6308-1.0215,2.5788,2.5788,0,0,1,.3145-.2637,3.73,3.73,0,0,0,.43-.3849l11.9443.1837H89.56a.5.5,0,0,0,.0078-1l-12-.1846a.4946.4946,0,0,0-.094-.0366c-.583-.07-1.1836-.1127-1.7881-.1552a14.8314,14.8314,0,0,1-4.01-.6485,2.818,2.818,0,0,1-1.5244-1.1836,4.15,4.15,0,0,1,.4492-4.1469c.8526-1.208,2.6582-1.6543,4.0225-1.8155.6465-.0766,5.0732-.4306,6.6855-.5053,1.5049-.07,3.1416-.1128,5.1524-.1343,1.3173-.0137,11.0859-.0083,22.3945-.0015,18.1357.0114,40.5572.0249,44.2937-.03v-1c-3.6541.0551-26.1262.0415-44.2927.03-8.7056-.0056-16.479-.01-20.2119-.0054l-6.5547-15.78a28.9864,28.9864,0,1,0-15.9727,4.79c.9229,0,1.8555-.0444,2.792-.1343.6611-.0634,1.3137-.1581,1.9624-.266l4.9526,11.9228c-.6412.0538-1.134.0982-1.3183.12-2.2783.27-3.8672,1.02-4.7217,2.2324a5.1287,5.1287,0,0,0-.5059,5.2119,3.8147,3.8147,0,0,0,2.0538,1.6333,15.5121,15.5121,0,0,0,4.2832.707q.3194.0228.6347.0464c-.0371.0342-.0742.07-.1093.1065a4.35,4.35,0,0,0-.8282,1.3222A5.02,5.02,0,0,0,75,141.4826a5.1568,5.1568,0,0,0,3.1009,3.6512.495.495,0,0,0,.044.1474,3.28,3.28,0,0,0-.3421.61,4.0019,4.0019,0,0,0,.0029,2.7476,5.15,5.15,0,0,0,2.7754,2.8018,4.0055,4.0055,0,0,0-.5723,3.2636,5.1178,5.1178,0,0,0,2.3887,3.4414,4.0626,4.0626,0,0,0,1.8183.3731c.1553,0,.3008-.0059.4327-.0132,1.3684-.0753,2.7382-.141,4.1079-.2073l4.4048,10.6043a6.0222,6.0222,0,0,0,11.123-4.62l-2.7054-6.5129c5.5641-.0518,22.8256-.1166,35.5745-.1635v.3781l15.9914,1v-1.4423h.005v-1C151.64,156.5524,145.9061,156.5736,138.71,156.6ZM68.8138,114.5138a27.9981,27.9981,0,0,1-5.3486-55.74q1.3578-.13,2.6953-.1294a27.9988,27.9988,0,0,1,2.6533,55.87Zm3.3113,1.14c1.4387.0586,6.4665.0542,9.844-2.4864l5.5939,13.4668c-.53.0013-.9206.0029-1.1135.005-2.0214.022-3.67.0649-5.1875.1352-.9414.0439-2.8339.182-4.39.3058Zm31.2356,49.0122a5.0218,5.0218,0,1,1-9.2754,3.8526l-4.2678-10.274q.4947-.0234.9892-.0466l10.3483,1.1582Z"/>
    <polygon class="sapIllus_StrokeDetailColor" style="fill:var(--sapIllus_StrokeDetailColor)" points="193.655 84.647 197.155 84.647 197.155 85.647 193.655 84.647"/>
    <path class="sapIllus_ObjectFillColor" style="fill:var(--sapIllus_ObjectFillColor)" d="M92.055,191.2127a9.73,9.73,0,0,0-2.7705.16c.9771-.2-1.106-4.8907-1.4283-5.443a10.7667,10.7667,0,0,0-4.788-4.4237c-3.7341-1.6845-7.464-.5466-10.4468,2.0311-2.8519,2.4645-4.5989,6.2657-8.0737,7.9872a.735.735,0,0,1-.4686.1075.7673.7673,0,0,1-.3174-.1919,10.7676,10.7676,0,0,0-6.37-2.8,10.0459,10.0459,0,0,0-10.1244,6.4013,11.1055,11.1055,0,0,1-.95,2.5042c-1.8467,2.8538-5.4608,1.5047-7.9556.5941-10.21-3.7269-15.3037,16.1328-.8476,13.7771,3.854-.628,7.857-1.6659,11.7511-1.916a84.8779,84.8779,0,0,1,11.03.19c7.9237.5376,15.762,1.882,23.6561,2.7042,5.4968.5726,12.232-.4978,15.7-5.2775a10.3477,10.3477,0,0,0-7.5959-16.4045Z"/>
    <path class="sapIllus_Layering1" style="fill:var(--sapIllus_Layering1)" d="M197.65,176.6474h0a5.5,5.5,0,0,1,5.5,5.5v10a.5.5,0,0,1-.5.5h-10a.5.5,0,0,1-.5-.5v-10A5.5,5.5,0,0,1,197.65,176.6474Z"/>
    <rect class="sapIllus_ObjectFillColor" style="fill:var(--sapIllus_ObjectFillColor)" x="153.1493" y="125.1645" width="1" height="33.8197"/>
    <path class="sapIllus_AccentColor" style="fill:var(--sapIllus_AccentColor)" d="M193.15,104.6522h4a0,0,0,0,1,0,0v5a1,1,0,0,1-1,1h-3a0,0,0,0,1,0,0v-6A0,0,0,0,1,193.15,104.6522Z"/>
    <path class="sapIllus_Layering1" style="fill:var(--sapIllus_Layering1)" d="M192.1515,102.646h6.5978a1.3988,1.3988,0,0,1,1.3988,1.3988v.2029a1.3988,1.3988,0,0,1-1.3988,1.3988h-6.5978a0,0,0,0,1,0,0v-3A0,0,0,0,1,192.1515,102.646Z"/>
    <polygon class="sapIllus_StrokeDetailColor" style="fill:var(--sapIllus_StrokeDetailColor)" points="193.65 105.647 197.15 105.647 197.15 106.647 193.65 105.647"/>
    <path class="sapIllus_AccentColor" style="fill:var(--sapIllus_AccentColor)" d="M193.1532,125.651h4a0,0,0,0,1,0,0v5a1,1,0,0,1-1,1h-3a0,0,0,0,1,0,0v-6A0,0,0,0,1,193.1532,125.651Z"/>
    <path class="sapIllus_Layering1" style="fill:var(--sapIllus_Layering1)" d="M192.1544,123.6448h6.5978a1.3988,1.3988,0,0,1,1.3988,1.3988v.2029a1.3988,1.3988,0,0,1-1.3988,1.3988h-6.5978a0,0,0,0,1,0,0v-3A0,0,0,0,1,192.1544,123.6448Z"/>
    <polygon class="sapIllus_StrokeDetailColor" style="fill:var(--sapIllus_StrokeDetailColor)" points="193.653 126.645 197.153 126.645 197.153 127.645 193.653 126.645"/>
</svg>