<svg xmlns="http://www.w3.org/2000/svg" xmlns:xlink="http://www.w3.org/1999/xlink" width="320" height="240" viewBox="0 0 320 240" id="sapIllus-Scene-NoActivities-Alt">
      <path class="sapIllus_BackgroundColor" style="fill:var(--sapIllus_BackgroundColor)" d="M222.1634,191.6632,85.1439,113.718V78.1215a68.621,68.621,0,0,1,68.51-68.452h0a68.621,68.621,0,0,1,68.51,68.452Z"/>
      <path class="sapIllus_Layering2" style="fill:var(--sapIllus_Layering2)" d="M139.8976,124.4824c12.5841,2.3894,30.182-18.6935,39.5152-25.132,11.632-8.0243,28.2415-15.9489,42.7516-14.7815v78.2125l-79.6152-9.026Z"/>
      <path class="sapIllus_ObjectFillColor" style="fill:var(--sapIllus_ObjectFillColor)" d="M85.1439,113.718c7.7353-1.5987,17.2871-.2522,25.01.98,21.6334,3.4525,39.5134,15.9411,59.6159,23.6673A293.872,293.872,0,0,0,221.2149,152.8l.4706.0879v39.2465H85.1439Z"/>
      <path class="sapIllus_Layering2" style="fill:var(--sapIllus_Layering2)" d="M58.6973,65.64c-4.3946.0658-8.7789-.0139-13.14.0219-.9479.0078-.05-3.63.5161-4.58A17.5214,17.5214,0,0,1,48.3889,57.88a14.2383,14.2383,0,0,1,6.876-4.0331c3.5056-.8507,8.7433-1.207,11.15,2.1442-.0085-.1358-.0292-.27-.0292-.4071,0-4.993,5.7378-9.1961,12.8143-9.1961s12.8124,4.2031,12.8124,9.1961a6.5128,6.5128,0,0,1-.2749,1.861c2.1873-1.0343,5.5109.06,6.5693.4234a12.5116,12.5116,0,0,1,5.3941,3.892c.7632.9071,2.5971,3.9063.4434,3.9012Z"/>
      <circle class="sapIllus_AccentColor" style="fill:var(--sapIllus_AccentColor)" cx="139.654" cy="77.1632" r="11.5"/>
      <path class="sapIllus_PatternShadow" style="fill:var(--sapIllus_PatternShadow)" d="M222.0133,152.8267c-.1566-.0294-.3137-.0585-.47-.0879a293.8668,293.8668,0,0,1-51.4452-14.4347c-20.1023-7.7262-37.9823-20.2147-59.6155-23.6672-7.7231-1.2326-17.6033-2.5175-25.3384-.9189v3.1761c.4932.2911,24.25.0067,56.5331,29.6194,11.3936,10.4512,18.4357,30.8487,22.0684,45.56h58.2679Z"/>
      <path class="sapIllus_Layering2" style="fill:var(--sapIllus_Layering2)" d="M259,130.0753a17.315,17.315,0,0,1,4.7838,6.3058c1.0928,2.4678,1.9606,5.8166.8518,8.411-1.2309,2.88-4.9181,3.7311-7.5585,2.289a8.3554,8.3554,0,0,1-3.6428-4.516c-.963-2.6066-.8577-5.43-1.32-8.1352-.25-1.4639-6.254-7.2965-5.32-8.2088.7743-.7564,3.1428-.66,4.05-.3649a26.8146,26.8146,0,0,1,6.8994,3.2719Q258.3947,129.5752,259,130.0753Z"/>
      <path class="sapIllus_Layering1" style="fill:var(--sapIllus_Layering1)" d="M230.7877,132.6612a2.0012,2.0012,0,0,0-.8644.7088c-.1488.2428-.02.5671.2946.5226,1.9707-.2784,6.0239-.6567,7.2446-.7341a50.0212,50.0212,0,0,1,7.444.0827c2.4381.2094,4.7791.8989,7.2073,1.1887-.2182-1.9425-1.08-6.107-2.3616-7.6849-1.0056-1.238-2.1163-1.1078-3.4518-.55q-7.1824,3.0036-14.3845,5.955C231.531,132.3073,231.15,132.4714,230.7877,132.6612Z"/>
      <path class="sapIllus_Layering1" style="fill:var(--sapIllus_Layering1)" d="M224.8873,131.4624c.4448,2.647.5161,5.6158-1.1322,7.7341.4079-4.5906-2.4356-8.9829-6.1633-11.6929s-10.8719-3.3754-15.2946-4.6713c2.8759-.4042,7.23-3.4754,9.9175-4.5539,1.68-.6742,3.9646-1.899,5.8518-1.2589C221.9243,118.3279,224.3145,128.0539,224.8873,131.4624Z"/>
      <path class="sapIllus_Layering1" style="fill:var(--sapIllus_Layering1)" d="M233.7246,124.0081a.4864.4864,0,0,1-.1368-.0126.4974.4974,0,0,1-.371-.5976l0-.0015c.6936-2.974-1.9271-6.0077-4.4616-8.9418a22.37,22.37,0,0,1-3.837-5.3444c-1.1156-2.6685-1.8756-6.6715-.3464-9.17a4.9107,4.9107,0,0,1,4.0829-2.26c3.26-.2607,6.2043,2.5007,7.6856,5.3381a16.7909,16.7909,0,0,1,1.0586,12.5785,32.0956,32.0956,0,0,1-1.4771,3.53,23.2039,23.2039,0,0,0-1.7368,4.4979h0A.497.497,0,0,1,233.7246,124.0081Zm-4.8635-25.3437c-.0432.002-.0863.0049-.13.0084a3.9705,3.9705,0,0,0-3.31,1.7864c-1.2475,2.039-.69,5.6215.416,8.2671a21.7829,21.7829,0,0,0,3.672,5.0778c1.94,2.2461,3.928,4.5475,4.59,6.953.2907-.6978.6088-1.38.9221-2.0513a31.3606,31.3606,0,0,0,1.4336-3.4192,15.7621,15.7621,0,0,0-.9957-11.8082C234.192,101.0523,231.6,98.5377,228.8611,98.6644Z"/>
      <path class="sapIllus_ObjectFillColor" style="fill:var(--sapIllus_ObjectFillColor)" d="M211.7236,113.2529a18.0773,18.0773,0,0,0-12.8014,1.53,10.3454,10.3454,0,0,0-3.8762,3.7552c-1.0993,1.9-1.374,4.6617.1924,6.4009,2.0788,2.308,5.6353,1.1045,7.954-.1317A57.854,57.854,0,0,0,208.59,121.1a16.7115,16.7115,0,0,1,11.0172-3.0681c-.0969-.0106-1.1616-1.17-1.4348-1.4194a10.8365,10.8365,0,0,0-2.2579-1.7621,15.2426,15.2426,0,0,0-3.12-1.3056Q212.2631,113.3838,211.7236,113.2529Z"/>
      <path class="sapIllus_Layering1" style="fill:var(--sapIllus_Layering1)" d="M233.5022,147.587a6.28,6.28,0,0,1-1.9512-.3086,7.7884,7.7884,0,0,1-4.3526-4.3037c-.05-.0991-.2358-.5732-.4663-1.1655-.3173-.8164-.8974-2.31-1.07-2.6245a.5.5,0,0,1,.355-.8447h.001c.0053.0014.0263-.0005.04-.0005,1.2617-.0162,2.584.0366,4.0444.1543l.481.038a13.8885,13.8885,0,0,1,4.6074.8868,5.3488,5.3488,0,0,1,1.2793.792v0a4.0238,4.0238,0,0,1,.6319,5.8658A4.5564,4.5564,0,0,1,233.5022,147.587Zm-6.6724-8.248c.1929.46.4546,1.13.8345,2.1079.2109.543.3794.9805.4282,1.0806,1.061,2.1162,2.2251,3.289,3.7729,3.8017,1.46.4854,3.4634.335,4.4634-.8862a3.0419,3.0419,0,0,0-.501-4.4663,4.352,4.352,0,0,0-1.0405-.6431,13.1466,13.1466,0,0,0-4.2808-.8052l-.4848-.0376C228.884,139.3985,227.8317,139.3487,226.83,139.339Z"/>
      <rect class="sapIllus_Layering2" style="fill:var(--sapIllus_Layering2)" x="190.7067" y="151.1132" width="39.9149" height="8.4942" rx="0.406"/>
      <path class="sapIllus_Layering2" style="fill:var(--sapIllus_Layering2)" d="M194.6246,159.6073h31.9286a0,0,0,0,1,0,0V190.898a.7734.7734,0,0,1-.7734.7734H195.398a.7734.7734,0,0,1-.7734-.7734V159.6073A0,0,0,0,1,194.6246,159.6073Z"/>
      <rect class="sapIllus_Layering2" style="fill:var(--sapIllus_Layering2)" x="55.1578" y="192.6622" width="202.9646" height="10.0027" rx="0.6081"/>
      <path class="sapIllus_StrokeDetailColor" style="fill:var(--sapIllus_StrokeDetailColor)" d="M279.8787,106.1125c-1.071-3.4958-4.9808-5.7259-9.51-5.4242-23.1989,1.5445-45.1635,29.9164-52.24,49.9766H191.052a.8815.8815,0,0,0-.9048.8541v7.2343a.8815.8815,0,0,0,.9048.854h2.3609l.7118.0986v31.67a1.2871,1.2871,0,0,0,1.2752,1.296h12.7755l-.5868,23.3635L222.19,192.6714h3.6834c.0142,0,.0259-.0077.04-.0082h11.74a.5.5,0,0,0,0-1H227.0914a1.2585,1.2585,0,0,0,.0573-.2878V159.6172l-.002-.01h3.07a.8814.8814,0,0,0,.9047-.854V151.519a.8814.8814,0,0,0-.9047-.8541H219.1978c7.105-19.7781,28.5966-47.4734,51.2384-48.98,4.05-.273,7.5465,1.67,8.48,4.7185.8383,2.736-.6487,5.508-3.978,7.414-5.9256,3.3929-16.8128,3.9217-31.486,1.5337a.4989.4989,0,1,0-.1631.9844c10.3942,1.6926,24.41,2.7784,32.152-1.6535C279.2035,112.5275,280.8623,109.3237,279.8787,106.1125Zm-53.7329,85.2737a.2747.2747,0,0,1-.2722.277H195.4a.2748.2748,0,0,1-.2723-.277V160.1075h1.9l29.1186,4.03Zm3.9782-32.7207H191.145v-7.0587h27.3141c.0131.001.0264.0066.04.0066.0075,0,.0134-.0062.021-.0066H230.124Z"/>
      <path class="sapIllus_BrandColorSecondary" style="fill:var(--sapIllus_BrandColorSecondary)" d="M208.09,179.4554a50.6637,50.6637,0,0,0-47.69-32.7786,51.2711,51.2711,0,0,0-42.2176,21.614V151.7992a1.1073,1.1073,0,0,0-1.7882-.8733l-9.7167,7.7395-.9749-.3a18.67,18.67,0,0,0-11.0989.2905l-11.7187-7.8237a1.1073,1.1073,0,0,0-1.7443.9058v19.4139c0,11.5891,8.8652,20.9212,18.9968,20.9212h11.465l.0012,0h88.3427a36.3893,36.3893,0,0,1-15.34,35.0394,6.0208,6.0208,0,0,0-1.4287,8.1344,5.6021,5.6021,0,0,0,7.7944,1.4071,48.3506,48.3506,0,0,0,20.5335-39.5157A47.3871,47.3871,0,0,0,208.09,179.4554Z"/>
      <polygon class="sapIllus_StrokeDetailColor" style="fill:var(--sapIllus_StrokeDetailColor)" points="118.16 161.391 112.267 176.762 118.133 168.332 118.16 161.391"/>
      <path class="sapIllus_PatternShadow" style="fill:var(--sapIllus_PatternShadow)" d="M208.09,179.4554c-6.6208-17.6871-22.2847-30.3714-42.9292-32.5633,8.33,2.0443,16.8627,5.9065,23.2123,11.6782a52.11,52.11,0,0,1,16.7486,34.6512c.58,8.5886-4.5043,16.8187-9.8334,23.579a57.005,57.005,0,0,1-10.4421,10.1437,7.1932,7.1932,0,0,0-1.8645,1.9426,6.1864,6.1864,0,0,0,.1958,6.36,5.6019,5.6019,0,0,0,7.7943,1.4072,48.3512,48.3512,0,0,0,20.5335-39.5159A47.3886,47.3886,0,0,0,208.09,179.4554Z"/>
      <path class="sapIllus_StrokeDetailColor" style="fill:var(--sapIllus_StrokeDetailColor)" d="M200.6553,192.6714H84.6585a.5.5,0,1,1,0-1H200.6553a.5.5,0,1,1,0,1Z"/>
      <path class="sapIllus_StrokeDetailColor" style="fill:var(--sapIllus_StrokeDetailColor)" d="M78.6515,192.6714H70.6773a.5.5,0,1,1,0-1h7.9742a.5.5,0,1,1,0,1Z"/>
      <path class="sapIllus_StrokeDetailColor" style="fill:var(--sapIllus_StrokeDetailColor)" d="M249.59,191.6632h-5.8923a.5028.5028,0,1,0,0,1H249.59a.5028.5028,0,1,0,0-1Z"/>
</svg>
