<svg xmlns="http://www.w3.org/2000/svg" xmlns:xlink="http://www.w3.org/1999/xlink" width="128" height="128" viewBox="0 0 128 128" id="sapIllus-Spot-NoSearchResults-Alt">
    <circle class="sapIllus_ObjectFillColor" style="fill:var(--sapIllus_ObjectFillColor)" cx="47.5079" cy="45.788" r="22.5135"/>
    <path class="sapIllus_BrandColorSecondary" style="fill:var(--sapIllus_BrandColorSecondary)" d="M77.5853,106.2719l-15.4527-37.2a27.5,27.5,0,1,0-11.9975,4.0866c.737-.0707,1.4612-.1782,2.178-.3046L67.871,110.3072a4.82,4.82,0,0,0,6.3,2.6023l.8118-.3373A4.82,4.82,0,0,0,77.5853,106.2719ZM49.5674,67.1356a21.48,21.48,0,1,1,19.33-23.4338A21.48,21.48,0,0,1,49.5674,67.1356Z"/>
    <path class="sapIllus_ObjectFillColor" style="fill:var(--sapIllus_ObjectFillColor)" d="M32.5273,46.9813a15.0925,15.0925,0,0,0,5.4368,10.2331"/>
    <path class="sapIllus_StrokeDetailColor" style="fill:var(--sapIllus_StrokeDetailColor)" d="M36.9549,57.5005a.5009.5009,0,0,1-.3183-.1142A15.536,15.536,0,0,1,31.02,46.8155a.5.5,0,0,1,.9961-.0957,14.54,14.54,0,0,0,5.2569,9.895.5.5,0,0,1-.3184.8857Z"/>
    <path class="sapIllus_ObjectFillColor" style="fill:var(--sapIllus_ObjectFillColor)" d="M86.9456,102.3925c-1.9249.0124-15.6884-.129-17.1245-.0641-3.8653.1746-7.7341.3285-11.5961.54a3.0405,3.0405,0,0,1-1.5284-.2339,3.5087,3.5087,0,0,1-1.6243-2.3568,2.8543,2.8543,0,0,1,.079-1.6047c.0807-.2156.4619-.995.7677-.9057a3.803,3.803,0,0,1-2.5449-2.1447A2.6342,2.6342,0,0,1,53.37,93.8c.0979-.2582.491-.8782.8455-.8245a3.5823,3.5823,0,0,1-2.9712-2.7335,3.4048,3.4048,0,0,1,.2158-2.0064,2.9926,2.9926,0,0,1,.5578-.89c.2164-.2246.5292-.3684.697-.6407a20.27,20.27,0,0,1-4.5178-.6315,2.53,2.53,0,0,1-1.3673-1.07,3.5081,3.5081,0,0,1,.3649-3.5542,4.7346,4.7346,0,0,1,3.3423-1.5372c.5072-.06,3.9245-.33,5.1378-.3859,1.3165-.0608,2.6344-.0883,3.9522-.1025,2.6333-.0285,24.1443.1043,27.3185.0867"/>
    <line class="sapIllus_ObjectFillColor" style="fill:var(--sapIllus_ObjectFillColor)" x1="62.0043" y1="86.852" x2="52.6753" y2="86.7128"/>
    <line class="sapIllus_ObjectFillColor" style="fill:var(--sapIllus_ObjectFillColor)" x1="61.0868" y1="92.8292" x2="53.5394" y2="93.0206"/>
    <line class="sapIllus_ObjectFillColor" style="fill:var(--sapIllus_ObjectFillColor)" x1="62.6911" y1="97.6231" x2="55.6624" y2="97.8145"/>
    <path class="sapIllus_StrokeDetailColor" style="fill:var(--sapIllus_StrokeDetailColor)" d="M51.8691,72.3855l.7182,1.7629s6.7981.5779,10.6645-2.8589l-1.18-2.8241-4.5645,2.4165Z"/>
    <path class="sapIllus_StrokeDetailColor" style="fill:var(--sapIllus_StrokeDetailColor)" d="M86.9455,101.8926h-.003c-.7158.0034-3.0459-.0117-5.7754-.0312-4.6562-.0328-10.45-.0733-11.3681-.0328l-3.085.1368c-2.84.124-5.68.2485-8.5166.4043a2.5749,2.5749,0,0,1-1.2773-.1822,3.0491,3.0491,0,0,1-1.3594-2.0185,2.3521,2.3521,0,0,1,.06-1.3218,2.4,2.4,0,0,1,.3017-.5364l6.8936-.1877a.5.5,0,0,0-.0137-1h-.0137l-6.6949.1823c-.0118-.0045-.02-.0136-.0326-.0173A3.3525,3.3525,0,0,1,53.8429,95.45a2.1391,2.1391,0,0,1-.0049-1.4726,2.8508,2.8508,0,0,1,.2771-.468l7.095-.18a.5.5,0,0,0,.4873-.5127.4837.4837,0,0,0-.5127-.4873l-6.8358.1734a.4616.4616,0,0,0-.0577-.021l-.002-.0005a3.0781,3.0781,0,0,1-2.5547-2.3389,2.9078,2.9078,0,0,1,.1856-1.71,2.4992,2.4992,0,0,1,.457-.74,1.951,1.951,0,0,1,.2275-.1885,3.0142,3.0142,0,0,0,.33-.2887l9.1723.1369h.0078a.5.5,0,0,0,.0078-1l-9.3291-.1392h-.006l-.0125-.0049c-.4473-.0537-.9083-.0864-1.3721-.1186a11.3311,11.3311,0,0,1-3.0342-.4863,2.0344,2.0344,0,0,1-1.1025-.8457,3.0114,3.0114,0,0,1,.3359-3.0191,4.339,4.339,0,0,1,2.9941-1.33c.48-.0566,3.9073-.3276,5.1026-.3828,1.1445-.0532,2.3945-.0854,3.9346-.102,1.3876-.0152,8.0576.0151,14.5068.0444,5.7461.0259,11.3164.0493,12.8086.0425a.5.5,0,0,0-.0029-1h-.003c-1.4951.0078-7.0566-.0161-12.7978-.0425-6.4551-.0293-13.128-.0615-14.5235-.0444-1.5517.0166-2.8125.0493-3.97.103-1.2461.0576-4.6719.33-5.1728.3887A5.0211,5.0211,0,0,0,46.7863,81.16a3.9978,3.9978,0,0,0-.3916,4.0884,3.0163,3.0163,0,0,0,1.6318,1.2944,12.0514,12.0514,0,0,0,3.3057.5444l.23.0162a3.6005,3.6005,0,0,0-.5625.936,3.9261,3.9261,0,0,0-.2461,2.3032,4.0444,4.0444,0,0,0,2.3819,2.8394,2.45,2.45,0,0,0-.2334.4414,3.1468,3.1468,0,0,0,.0029,2.1723,3.999,3.999,0,0,0,2.0567,2.1363,3.3238,3.3238,0,0,0-.2784.5659,3.3607,3.3607,0,0,0-.1,1.8892,4.0094,4.0094,0,0,0,1.8887,2.6953,3.2362,3.2362,0,0,0,1.4434.2959c.121,0,.2334-.0044.3359-.01,2.1543-.1181,4.3115-.2111,6.4683-.3067l.8334,1.61,11.86,1.2442-1.249-3.0866c1.6348.01,3.3821.0218,4.9948.033,2.7344.019,5.0781.0341,5.7891.0312a.5.5,0,0,0-.0029-1Z"/>
    <path class="sapIllus_PatternShadow" style="fill:var(--sapIllus_PatternShadow)" d="M74.8858,43.345A27.4863,27.4863,0,0,0,58.6027,20.61c.2021.692.4713,1.6559.7549,2.8146a36.9015,36.9015,0,0,1,1.1009,5.4927A27.3287,27.3287,0,0,1,35.8653,58.732a31.6609,31.6609,0,0,1-7.9469-.3943,28.6447,28.6447,0,0,1-5.5734-1.6666,26.9239,26.9239,0,0,0,5.5808,8.4277,27.3235,27.3235,0,0,0,8.2547,5.7494,27.8327,27.8327,0,0,0,14.1121,2.3112,27.5056,27.5056,0,0,0,9.9144-2.9433A28.3733,28.3733,0,0,0,73.26,55.4546,27.99,27.99,0,0,0,74.8858,43.345Z"/>
    <path class="sapIllus_Layering1" style="fill:var(--sapIllus_Layering1)" d="M99.7588,25.7807l6.7756-6.7789a1.5974,1.5974,0,0,0-2.2586-2.26L97.5,23.5211l-6.7756-6.7789a1.5974,1.5974,0,1,0-2.2585,2.26l6.7756,6.7789L88.4662,32.56a1.5974,1.5974,0,0,0,2.2585,2.26L97.5,28.04l6.7755,6.779a1.5975,1.5975,0,0,0,2.2586-2.26Z"/>
</svg>