<svg xmlns="http://www.w3.org/2000/svg" xmlns:xlink="http://www.w3.org/1999/xlink" width="128" height="128" viewBox="0 0 128 128" id="sapIllus-Spot-SuccessCheckMark-Alt">
    <circle class="sapIllus_ObjectFillColor" style="fill:var(--sapIllus_ObjectFillColor)" cx="63.313" cy="73.0087" r="33.0088"/>
    <path class="sapIllus_StrokeDetailColor" style="fill:var(--sapIllus_StrokeDetailColor)" d="M63.3106,107.0115A34.0066,34.0066,0,1,1,97.3174,73.0052,34.0455,34.0455,0,0,1,63.3106,107.0115Zm.0022-67.0131a33.0088,33.0088,0,1,0,33.009,33.009A33.0462,33.0462,0,0,0,63.3128,39.9984Z"/>
    <circle class="sapIllus_BrandColorSecondary" style="fill:var(--sapIllus_BrandColorSecondary)" cx="63.3039" cy="72.994" r="24.0095"/>
    <path class="sapIllus_PatternShadow" style="fill:var(--sapIllus_PatternShadow)" d="M47.17,83.1622c-.9648,1.1425-1.7941,2.3295-1.7941,2.3295-.5209.7457-.9433,1.419-1.273,1.9746A24.1142,24.1142,0,0,0,69.29,96.2512,24.0622,24.0622,0,0,0,85.9718,80.93,23.9975,23.9975,0,0,0,79.0713,54.887C61.2213,70.2354,48.4339,81.666,47.17,83.1622Z"/>
    <path class="sapIllus_ObjectFillColor" style="fill:var(--sapIllus_ObjectFillColor)" d="M79.622,62.3931l-1.4677-1.4677a1.0029,1.0029,0,0,0-1.4142,0L58.5835,79.082a1,1,0,0,1-1.4142,0l-7.2835-7.2835a1.0031,1.0031,0,0,0-1.4141,0L47.0042,73.265a1.0029,1.0029,0,0,0,0,1.4144L57.2807,84.9561a.8452.8452,0,0,0,1.1924,0L79.622,63.8073A1.0029,1.0029,0,0,0,79.622,62.3931Z"/>
    <path class="sapIllus_Layering1" style="fill:var(--sapIllus_Layering1)" d="M14.6692,24.51,29.1371,34.8518c.8356.5973,1.6381-.7651.8109-1.3564L15.48,23.154c-.8356-.5973-1.638.7651-.8108,1.3564Z"/>
    <path class="sapIllus_Layering1" style="fill:var(--sapIllus_Layering1)" d="M77.1922,24.5292l6.9577-11.05c.6874-1.0917-1.041-2.0959-1.7254-1.0089L75.4668,23.52c-.6873,1.0916,1.041,2.0959,1.7254,1.0089Z"/>
    <path class="sapIllus_AccentColor" style="fill:var(--sapIllus_AccentColor)" d="M97.0222,36.2051a13.7339,13.7339,0,0,1,5.0919,1.7314c.6412.3613,1.1409-.6683,1.0974-1.4414a4.9692,4.9692,0,0,1,1.8594-4.0728c.5175-.4647.0581-1.1325-.5164-1.207a9.8963,9.8963,0,0,1-4.859-2.0321.75.75,0,0,0-1.2207.3117,40.6972,40.6972,0,0,1-2.0835,5.6465A.72.72,0,0,0,97.0222,36.2051Zm2.5517-5.4a11.4465,11.4465,0,0,0,3.6033,1.5581,6.5688,6.5688,0,0,0-1.3926,3.8067,15.0514,15.0514,0,0,0-3.761-1.2081A43.0918,43.0918,0,0,0,99.5739,30.8055Z"/>
    <path class="sapIllus_Layering1" style="fill:var(--sapIllus_Layering1)" d="M120.9962,52.1621a5.4836,5.4836,0,0,0-6.6436-.3212,8.245,8.245,0,0,0-1.958,2.5824,4.6862,4.6862,0,0,1-1.9667,2.2751,2.8029,2.8029,0,0,1-2.3555-.2992,8.1019,8.1019,0,0,1-2.1809-2.0692.9023.9023,0,0,0-1.2408-.1535.8458.8458,0,0,0-.1579,1.2058,10.2654,10.2654,0,0,0,2.3793,2.3137c.1007.0655.2038.1284.3093.1878a5.0332,5.0332,0,0,0,2.4618.6741,3.9294,3.9294,0,0,0,1.4543-.2685,6.1025,6.1025,0,0,0,2.85-3.0443,6.8352,6.8352,0,0,1,1.5169-2.0673,3.6319,3.6319,0,0,1,4.3865.295.899.899,0,0,0,.6442.2.8823.8823,0,0,0,.6022-.3A.8449.8449,0,0,0,120.9962,52.1621Z"/>
    <path class="sapIllus_AccentColor" style="fill:var(--sapIllus_AccentColor)" d="M15.31,59.9992a5.001,5.001,0,1,1,5.0012-5.0012A5.0066,5.0066,0,0,1,15.31,59.9992Zm0-8.7205a3.72,3.72,0,1,0,3.72,3.7193A3.7237,3.7237,0,0,0,15.31,51.2787Z"/>
    <rect class="sapIllus_AccentColor" style="fill:var(--sapIllus_AccentColor)" x="48.0872" y="16.7465" width="6.4108" height="6.4108" rx="1.047" transform="translate(20.5451 -25.6945) rotate(34.7805)"/>
</svg>