<svg xmlns="http://www.w3.org/2000/svg" xmlns:xlink="http://www.w3.org/1999/xlink" width="160" height="160" viewBox="0 0 160 160" id="sapIllus-Dialog-BeforeSearch-Alt">
    <path class="sapIllus_AccentColor" style="fill:var(--sapIllus_AccentColor)" d="M125.7358,27.0248c-2.9567-1.1447-4.39-3.92-5.4982-6.748a.4345.4345,0,0,0-.399-.2768.5345.5345,0,0,0-.4058.267c-1.477,3.5145-3.6713,5.31-6.2119,7.3881l-.06.0495a.437.437,0,0,0,.1842.7659c2.3021.4909,5.7281,4.7359,5.7281,7.0977a.4343.4343,0,0,0,.8515.1228c.7445-2.5481,2.9056-6.742,5.81-7.85a.4376.4376,0,0,0,.0017-.8158Z"/>
    <path class="sapIllus_AccentColor" style="fill:var(--sapIllus_AccentColor)" d="M107.7156,45.2347c-1.664-.6614-2.4792-2.2871-3.1125-3.9453A.4438.4438,0,0,0,104.1963,41h-.0052a.4439.4439,0,0,0-.4085.2787,10.6987,10.6987,0,0,1-3.5833,4.3645l-.0357.03a.4655.4655,0,0,0-.1513.4615.4509.4509,0,0,0,.3392.3394c1.2582.2753,3.2052,2.7505,3.2052,4.0746a.453.453,0,0,0,.38.4523.44.44,0,0,0,.488-.3234c.4267-1.4945,1.6537-3.95,3.2892-4.59a.4616.4616,0,0,0,.0017-.8528Z"/>
    <path class="sapIllus_StrokeDetailColor" style="fill:var(--sapIllus_StrokeDetailColor)" d="M35,56.8514a.501.501,0,0,1-.4854-.38,21.7086,21.7086,0,0,1-.625-4.9019h.001a20.28,20.28,0,0,1,1.7383-8.3647c.0674-.1539.1377-.3067.208-.458a.5.5,0,0,1,.9062.4248q-.1025.2167-.2.4375a19.3115,19.3115,0,0,0-1.6513,8.0615h0a20.7236,20.7236,0,0,0,.5937,4.56.5.5,0,0,1-.3652.6055A.51.51,0,0,1,35,56.8514Z"/>
    <path class="sapIllus_PatternShadow" style="fill:var(--sapIllus_PatternShadow)" d="M54.65,73.8929A22.4971,22.4971,0,0,0,66.5335,33.91,30.1729,30.1729,0,0,1,39.3047,65.8248a29.2319,29.2319,0,0,1-4.086.08A22.4755,22.4755,0,0,0,54.65,73.8929Z"/>
    <path class="sapIllus_BrandColorSecondary" style="fill:var(--sapIllus_BrandColorSecondary)" d="M91.5556,132.9863,68.4963,77.4741a30.5029,30.5029,0,1,0-13.0791,4.3875c.7568-.0727,1.5009-.1815,2.2385-.3073L80.865,137.4272a5.7881,5.7881,0,1,0,10.6906-4.4409ZM54.65,73.893a22.5028,22.5028,0,1,1,20.25-24.55A22.5029,22.5029,0,0,1,54.65,73.893Z"/>
    <path class="sapIllus_StrokeDetailColor" style="fill:var(--sapIllus_StrokeDetailColor)" d="M57.6569,81.5627l.6017,1.4875s7.887,1.6678,11.8013-1.8116l-1.5684-3.7568a42.5785,42.5785,0,0,1-10.8346,4.0809Z"/>
  
      <rect class="sapIllus_Layering2" style="fill:var(--sapIllus_Layering2)" x="128.7956" y="98.533" width="0.0095" height="32.0144"/>
      <path class="sapIllus_ObjectFillColor" style="fill:var(--sapIllus_ObjectFillColor)" d="M68.538,101.765c-1.6573.0173-3.0054.053-4.2415.11-1.3259.0613-4.9726.35-5.5061.4129a4.8039,4.8039,0,0,0-3.3274,1.4952,3.3905,3.3905,0,0,0-.3721,3.4116,2.3407,2.3407,0,0,0,1.2679.9791,12.3026,12.3026,0,0,0,3.3076.532c.2827.02.5578.0483.8364.0724a.3383.3383,0,0,1,.0966-.01l10.8639.15a.438.438,0,0,1-.0059.876h-.0061l-10.2239-.1409a3.0713,3.0713,0,0,1-.3454.3057,2.2855,2.2855,0,0,0-.2622.2181,2.79,2.79,0,0,0-.5237.8434,3.2783,3.2783,0,0,0-.209,1.93,3.3558,3.3558,0,0,0,2.5024,2.5744l7.8247-.1985a.422.422,0,0,1,.4493.4271.4385.4385,0,0,1-.427.449l-7.647.194a1.6818,1.6818,0,0,0-.4307.6006,2.45,2.45,0,0,0,.0054,1.6914,3.7272,3.7272,0,0,0,2.4243,2.05l7.3522-.2h.0119a.4381.4381,0,0,1,.0121.8761l-7.5366.2052a2.4125,2.4125,0,0,0-.42,2.132,3.4393,3.4393,0,0,0,1.5437,2.2749,2.8361,2.8361,0,0,0,1.4512.2114c3.4487-.1894,7.988-.4123,12.5105-.4547.6622-.0063,9.5581-.0016,19.4729.0049V101.7429C84.5652,101.7452,69.9634,101.75,68.538,101.765Z"/>
   
        <path class="sapIllus_Layering2" style="fill:var(--sapIllus_Layering2)" d="M100.9852,97.9886a1.9989,1.9989,0,0,0-1.999,1.9989V128.004a1.9991,1.9991,0,0,0,1.999,1.9991h6.0023V97.9886Z"/>

          <path class="sapIllus_BackgroundColor" style="fill:var(--sapIllus_BackgroundColor)" d="M115.98,144.9944A2.0056,2.0056,0,0,0,117.9855,147h8.9859a2.0056,2.0056,0,0,0,2.0057-2.0056V130.0031H115.98Z"/>
          <path class="sapIllus_BackgroundColor" style="fill:var(--sapIllus_BackgroundColor)" d="M128.9771,66.01a2.0055,2.0055,0,0,0-2.0057-2.0054h-8.9859A2.0054,2.0054,0,0,0,115.98,66.01v31.979h12.9972Z"/>
   
        <polygon class="sapIllus_Layering2" style="fill:var(--sapIllus_Layering2)" points="115.98 97.989 108.983 97.989 108.983 130.003 115.98 130.003 128.977 130.003 128.977 97.989 115.98 97.989"/>
        <rect class="sapIllus_ObjectFillColor" style="fill:var(--sapIllus_ObjectFillColor)" x="106.9875" y="97.9886" width="1.9956" height="32.0144"/>
 
      <path class="sapIllus_StrokeDetailColor" style="fill:var(--sapIllus_StrokeDetailColor)" d="M58.79,102.2878c.5335-.0628,4.18-.3516,5.5061-.4129,1.2361-.0569,2.5842-.0926,4.2415-.11,1.4254-.0149,16.0272-.02,30.4482-.0221v-.7759c-14.4234.0024-29.0277.007-30.4558.0219-1.668.0183-3.0244.0531-4.2693.1114-1.3369.0607-5.0212.3532-5.5615.4176a5.2631,5.2631,0,0,0-3.8694,1.8157,4.1486,4.1486,0,0,0-.4153,4.2429,3.1117,3.1117,0,0,0,1.6778,1.3262,12.8509,12.8509,0,0,0,3.5192.5767c.1924.0136.3833.0273.5738.0417-.0432.0379-.085.0764-.1245.1174a3.5638,3.5638,0,0,0-.679,1.0752,4.0789,4.0789,0,0,0-.2561,2.3909,4.2133,4.2133,0,0,0,2.5669,3.0259.4131.4131,0,0,0,.0373.0658,2.6312,2.6312,0,0,0-.2973.5254,3.2373,3.2373,0,0,0,.0036,2.2347,4.21,4.21,0,0,0,2.2947,2.2893,3.4174,3.4174,0,0,0-.38.7245,3.4711,3.4711,0,0,0-.1009,1.95,4.1689,4.1689,0,0,0,1.9544,2.8,3.3264,3.3264,0,0,0,1.4839.3024c.1279,0,.2485-.0046.3569-.0107,2.6372-.1446,5.9125-.3084,9.3277-.3962h.0008l.1755.4222,13.4644,2.2365-1.1258-2.71,1.3776-.0057c2.665.0014,5.6433.0033,8.7207.0052v-.7759c-3.7513-.0024-7.3545-.0046-10.4234-.0061h0l-2.24-.001-.7619,0c-2.4676-.0008-4.3471-.0008-5.3267.0005-.05,0-.1015,0-.147,0-.1358,0-.2441,0-.3358.0006h-.0351c-.0912,0-.1653.0006-.2034.001-1.1578.0109-2.3162.0337-3.4576.0647h-.001c-3.3166.09-6.4863.249-9.0519.39a2.8361,2.8361,0,0,1-1.4512-.2114,3.4393,3.4393,0,0,1-1.5437-2.2749,2.4125,2.4125,0,0,1,.42-2.132l7.5366-.2052a.4381.4381,0,0,0-.0121-.8761h-.0119l-7.3522.2a3.7272,3.7272,0,0,1-2.4243-2.05,2.45,2.45,0,0,1-.0054-1.6914,1.6818,1.6818,0,0,1,.4307-.6006l7.647-.194a.4385.4385,0,0,0,.427-.449.422.422,0,0,0-.4493-.4271l-7.8247.1985a3.3558,3.3558,0,0,1-2.5024-2.5744,3.2783,3.2783,0,0,1,.209-1.93,2.79,2.79,0,0,1,.5237-.8434,2.2855,2.2855,0,0,1,.2622-.2181,3.0713,3.0713,0,0,0,.3454-.3057l10.2239.1409h.0061a.438.438,0,0,0,.0059-.876l-10.8639-.15a.3383.3383,0,0,0-.0966.01c-.2786-.0241-.5537-.0526-.8364-.0724a12.3026,12.3026,0,0,1-3.3076-.532,2.3407,2.3407,0,0,1-1.2679-.9791,3.3905,3.3905,0,0,1,.3721-3.4116A4.8039,4.8039,0,0,1,58.79,102.2878Z"/>

</svg>
