<svg xmlns="http://www.w3.org/2000/svg" xmlns:xlink="http://www.w3.org/1999/xlink" width="160" height="160" viewBox="0 0 160 160" id="sapIllus-Dialog-SuccessHighFive">
    <path class="sapIllus_BackgroundColor" style="fill:var(--sapIllus_BackgroundColor)" d="M144.3652,110.5274c0,19.51-7.1471,27.0247-23.5443,37.8136-11.09,7.2969-41.4991,10.7019-56.3636,10.7019-42.0944,0-51.3694-25.6847-52.0828-57.0771-.7431-32.6964,29.8665-53.51,66.7088-53.51S144.3652,77.8225,144.3652,110.5274Z"/>
    <path class="sapIllus_Layering1" style="fill:var(--sapIllus_Layering1)" d="M143.68,119.8524c-2.14,12.9564-9.3678,19.6131-22.8594,28.4886-.0927.0641-.1855.1212-.2853.1783-2.64-4.98-5.6578-10.973-8.2762-15.8745-4.7588-8.9183-10.1312-20.6048-14.89-29.5161q-1.766-3.3067-3.5246-6.6065c-.9274-1.7339-4.1237-7.72-3.075-6.1-.0713-.1783-1.2628-2.5614-1.3341-2.7183,4.9871,3.56,8.5544,1.42,8.5544,1.42,7.8481-4.2808,7.8981-10.7377,5.7077-14.2693,13.5558,15.6962,23.5086,26.6622,33.89,38.0919,1.9478,2.1474,4.609,4.3449,6.0645,6.8563C143.6589,119.8167,143.6732,119.8381,143.68,119.8524Z"/>
    <path class="sapIllus_BackgroundColor" style="fill:var(--sapIllus_BackgroundColor)" d="M92.7012,96.6132a8.5587,8.5587,0,0,0,7.7538,3.2832c3.782-.4768,6.8421-3.5262,8.4059-7.0026s1.8967-7.3614,2.2082-11.1606L116.1,87.3751c-.3431,4.1845-.71,8.4634-2.432,12.2923s-5.0928,7.1876-9.2584,7.7127a9.4266,9.4266,0,0,1-8.54-3.616Z"/>
    <path class="sapIllus_Layering1" style="fill:var(--sapIllus_Layering1)" d="M120.3366,149.21l-.2422-.4565c-1.2393-2.3369-2.5616-4.897-3.8858-7.4624-1.499-2.9014-3.001-5.81-4.3906-8.4111-2.377-4.4556-4.9482-9.6831-7.4336-14.7383-2.4951-5.0733-5.0742-10.3189-7.456-14.7778L93.403,96.7576c-2.4688-4.62-3.2461-6.0732-3.3262-6.6274-.1885-.3848-.458-.9273-.6817-1.378-.2148-.4321-.3876-.7817-.414-.8388l-.7891-1.711,1.5332,1.0948c4.6367,3.3081,7.874,1.476,8.01,1.396,3.4541-1.8843,5.6689-4.38,6.4209-7.2261a8.139,8.139,0,0,0-.8828-6.3491l.8037-.59c13.6758,15.8355,23.9473,27.145,33.8808,38.0825.584.6441,1.2247,1.2842,1.9034,1.9625a25.8571,25.8571,0,0,1,4.2236,4.979l.09.1552-.0009.2271c-2.15,13.0161-9.1553,19.6655-23.0782,28.8247-.0947.0659-.1992.13-.31.1943ZM91.15,90.2806c.2364.5029.9619,1.94,3.1358,6.0058l3.5254,6.607c2.3886,4.4736,4.9716,9.7265,7.4707,14.8071,2.4824,5.0478,5.0488,10.2676,7.4189,14.709,1.3906,2.6045,2.8955,5.5175,4.3965,8.4228,1.2324,2.3882,2.4639,4.7715,3.6269,6.9741,13.4952-8.8964,20.3184-15.3833,22.4327-27.8579a25.9439,25.9439,0,0,0-4.002-4.6684c-.6885-.687-1.3379-1.336-1.9375-1.9981-9.4668-10.4233-19.24-21.1841-31.9756-35.8784a9.39,9.39,0,0,1-.1191,4.3189c-.5742,2.1743-2.2363,5.3-6.8936,7.84-.124.0762-3.1738,1.8413-7.5674-.5049.3614.73.5381,1.0913.5733,1.18Z"/>
    <path class="sapIllus_BrandColorSecondary" style="fill:var(--sapIllus_BrandColorSecondary)" d="M86.4681,5.58,82.4124,16.6577a.9692.9692,0,0,0,1.8077.6987L88.2758,6.2789A.9692.9692,0,0,0,86.4681,5.58Z"/>
    <path class="sapIllus_Layering1" style="fill:var(--sapIllus_Layering1)" d="M40.5994,17.663l8.008,8.9751c.8621.9661,2.34-.4038,1.48-1.3676L42.079,16.2954c-.862-.9661-2.34.4038-1.48,1.3676Z"/>
    <path class="sapIllus_ObjectFillColor" style="fill:var(--sapIllus_ObjectFillColor)" d="M87.038,83.6235a12.5152,12.5152,0,0,0,8.8377-.4607c3.6873-1.6354,6.3813-5.0072,8.028-8.69a49.6223,49.6223,0,0,0,3.075-11.6707l1.656-9.2982c.2367-1.3292.3271-3.0069-.83-3.703a2.2228,2.2228,0,0,0-2.15.058,5.37,5.37,0,0,0-1.629,1.5279,19.6944,19.6944,0,0,0-3.8878,9.17L89.8355,34.0738c-.444-1.1412-1.1638-2.4826-2.3883-2.48-1.2507.0025-1.9792,1.4462-2.1009,2.6909-.3622,3.7044,1.9618,7.31,1.4685,11-.4251,3.1786-2.8156,5.6678-4.6131,8.3237a24.994,24.994,0,0,0-4.166,12.7549c-.1969,4.0787.4157,9.3923,2.8418,12.8127A12.31,12.31,0,0,0,87.038,83.6235Z"/>
    <path class="sapIllus_ObjectFillColor" style="fill:var(--sapIllus_ObjectFillColor)" d="M55.1823,50.5964a10.5775,10.5775,0,0,1,0-4.2807c.2923-1.2432.8645-1.4816,2.14-1.427a3.19,3.19,0,0,1,2.8423,2.0467,37.6072,37.6072,0,0,1,3.18,8.8046l1.1168-23.7078a3.8859,3.8859,0,0,1,.709-2.1262c.4669-.813,1.2674-1.7689,2.14-1.4269a2.7289,2.7289,0,0,1,1.4826,2.3567c.6513,4.1412.72,10.6252,1.3712,14.7664.6711-4.2492,1.9251-10.8411,2.5963-15.09.2461-1.5583.66-3.3525,2.0843-4.0308a2.693,2.693,0,0,1,3.881,1.2844,14.43,14.43,0,0,1,.578,5.9336,8.0937,8.0937,0,0,1,1.141-2.6346c.5805-.7677.8967-1.3031,1.8483-1.1586a2.96,2.96,0,0,1,2.14,2.14,7.0725,7.0725,0,0,1,0,2.8538c-.4317,4.0365-.9953,8.806-1.4269,12.8424.087-.6856.9524-1.8706,1.4269-4.2808.2874-1.46,1.7107-3.8066,2.8538-2.8538a7.5531,7.5531,0,0,1,1.7559,3.781A57.7685,57.7685,0,0,1,74.4458,86.27c1.4269-3.5673,0-7.8481-2.6452-10.9268-1.2906-1.5021-1.8253-2.3228-3.776-2.629a10.1274,10.1274,0,0,0-2.8538,0c-.5082.06-2.36.5788-2.8539.7135a10.8044,10.8044,0,0,0-1.4269.7134c-.8019-.0479-1.2636-2.87-1.4269-3.5673-.3009-1.2853-1.1261-2.282-1.427-3.5673-.5962-2.5472-.8307-5.3009-1.4269-7.8481C55.931,56.26,55.8605,53.4942,55.1823,50.5964Z"/>
    <path class="sapIllus_BrandColorSecondary" style="fill:var(--sapIllus_BrandColorSecondary)" d="M75.0951,83.0305c.0356,3.9169-1.4412,7.6769-2.9752,11.287a275.4387,275.4387,0,0,1-34.025,58.8036c-.2141.2855-.4353.578-.6707.8633-15.047-6.97-21.5181-20.5762-23.8939-37.1073a39.3579,39.3579,0,0,1,3.96-3.6528Q29.0373,102.426,40.5777,91.6277q6.4854-6.0572,12.9707-12.1217a31.1955,31.1955,0,0,1,7.2275-5.5436,10.55,10.55,0,0,1,8.8183-.6065C73.1758,74.9542,75.0665,79.1064,75.0951,83.0305Z"/>
    <path class="sapIllus_ObjectFillColor" style="fill:var(--sapIllus_ObjectFillColor)" d="M95.2357,89.7285c1.48.0188,2.1328-.68,3.4679-1.3185a10.1707,10.1707,0,0,0,4.9942-4.9942,12.5866,12.5866,0,0,0,.7135-7.8481c-.3046-1.0283-.301-1.2139-1.3279-1.5233a3.761,3.761,0,0,0-2.6524.5312A49.0683,49.0683,0,0,0,90.99,80.6293q-1.1252.9185-2.1946,1.9023c-.4753.4374-1.502,1.1063-1.5875,1.7975-.1572,1.27,1.9786,3.0131,2.8726,3.6552A9.1218,9.1218,0,0,0,95.2357,89.7285Z"/>
    <path class="sapIllus_BackgroundColor" style="fill:var(--sapIllus_BackgroundColor)" d="M72.71,95.78a.4991.4991,0,0,1-.4922-.4185A18.6678,18.6678,0,0,0,52.8483,79.7664a.4855.4855,0,0,1-.5244-.4741.499.499,0,0,1,.4736-.5249A19.6674,19.6674,0,0,1,73.2037,95.198a.4993.4993,0,0,1-.4111.5747A.4825.4825,0,0,1,72.71,95.78Z"/>
    <path class="sapIllus_StrokeDetailColor" style="fill:var(--sapIllus_StrokeDetailColor)" d="M109.2769,52.2337a2.8963,2.8963,0,0,0-1.49-2.3125,2.8262,2.8262,0,0,0-2.584.1582,6.01,6.01,0,0,0-1.7617,1.6259A18.115,18.115,0,0,0,99.9588,59.18L91.0474,34.8323a6.9422,6.9422,0,0,0-1.4365-2.6279,2.7285,2.7285,0,0,0-3.1494-.628c-1.2168.6856-1.3711,2.3418-1.4219,2.8858-.0293.3139-.0372.6283-.0511.9426.0072-.7559-.0024-1.5294-.04-2.3293-.0469-1.02-.3477-2.81-1.8223-3.3453a2.6665,2.6665,0,0,0-2.8515.9356,4.6376,4.6376,0,0,0-.7439,1.3015,27.1631,27.1631,0,0,0-.3958-3.531A3.9852,3.9852,0,0,0,78.08,26.0847a2.4771,2.4771,0,0,0-1.8515-.6132,3.5748,3.5748,0,0,0-2.4053,1.1977,7.7656,7.7656,0,0,0-1.4863,3.94c-.6431,3.6576-1.2313,7.35-1.7689,11.0483L69.4234,31.6253c-.3076-2.6958-1.4277-3.4019-2.3145-3.52A2.5077,2.5077,0,0,0,64.6646,29.58a6.3521,6.3521,0,0,0-.5107,2.5655L63.0054,53.4221a31.8912,31.8912,0,0,0-1.7275-5.4912,7.1537,7.1537,0,0,0-1.98-2.9824,3.1589,3.1589,0,0,0-3.7275-.2793c-1.3575,1-1.2754,2.8955-1.0528,4.4356l.04.2763c1.165,8.0415,2.4853,17.1563,5.207,25.0235a.5.5,0,0,0,.9453-.3272c-2.69-7.7773-4.0039-16.8418-5.1621-24.84l-.04-.2764c-.1836-1.2637-.2745-2.8018.6552-3.4868a2.1845,2.1845,0,0,1,2.5137.2583,6.2737,6.2737,0,0,1,1.6768,2.583,30.7745,30.7745,0,0,1,2.3544,10.6509.5.5,0,0,0,.4971.48h.0029a.4993.4993,0,0,0,.4991-.4732L65.1519,32.2a5.522,5.522,0,0,1,.4053-2.17,1.5646,1.5646,0,0,1,1.4209-.9327c1.0166.1353,1.3457,1.7129,1.4511,2.6416l1.5829,13.88q-.3846,2.8578-.7274,5.7077a.5.5,0,0,0,.4365.5557.4924.4924,0,0,0,.0606.0034.5.5,0,0,0,.4951-.4409q.3333-2.797.7136-5.6061a.4913.4913,0,0,0,.0251-.1782c.6712-4.9745,1.4407-9.9577,2.3053-14.8773a7.0072,7.0072,0,0,1,1.2578-3.459,2.5429,2.5429,0,0,1,1.7089-.854,1.5194,1.5194,0,0,1,1.1182.3545,3.141,3.141,0,0,1,.7451,1.7895,26.2,26.2,0,0,1,.3555,6.4327.4869.4869,0,0,0,.052.2415,108.9927,108.9927,0,0,0-3.1516,18.1066.5.5,0,0,0,.4541.5415.49.49,0,0,0,.542-.4546,107.9183,107.9183,0,0,1,3.6855-20.0141,5.7254,5.7254,0,0,1,.9522-2.1573,1.713,1.713,0,0,1,1.7441-.6391c.9649.35,1.1367,1.831,1.166,2.4516a51.5181,51.5181,0,0,1-.9443,11.5855c-.4346,2.5332-.83,5.0737-1.2256,7.6138q-.296,1.9013-.5976,3.8007a.5.5,0,0,0,.9882.1582q.3033-1.902.5977-3.8047c.0123-.0793.025-.1585.0373-.2379a.4808.4808,0,0,0,.0467-.0975l2.2959-8.9619c.3672-1.4326.8994-2.18,1.581-2.2212a1.3885,1.3885,0,0,1,1.2119.8149,4.8464,4.8464,0,0,1,.4258,1.8438,55.1587,55.1587,0,0,1,.23,5.81.486.486,0,0,0-.0056.15A53.7029,53.7029,0,0,1,80.211,77.6719a.4917.4917,0,0,0-.1826.2943,51.4222,51.4222,0,0,1-5.2935,6.8387.5.5,0,0,0,.7363.6768,52.3772,52.3772,0,0,0,4.9666-6.3237c1.1365,2.2071,3.2974,3.463,5.6086,4.6406.0779.04.2463.1089.4334.1836a.4714.4714,0,0,0,.0051.0591A8.9724,8.9724,0,0,0,94.3287,90.1c.11.0044.2207.0063.331.0063a10.5128,10.5128,0,0,0,8.2539-4.3652,12.8261,12.8261,0,0,0,1.4082-11.3267,55.7315,55.7315,0,0,0,2.4805-9.0976l2.2363-10.5694A7.6946,7.6946,0,0,0,109.2769,52.2337ZM84.4356,42.1176a51.0249,51.0249,0,0,0,.5281-5.9138,19.34,19.34,0,0,0,.448,4.2315.4912.4912,0,0,0,.0258.0583A4.0118,4.0118,0,0,0,84.4356,42.1176ZM108.06,54.5413,105.8238,65.11a51.6644,51.6644,0,0,1-2.6406,9.4624c-.148.35-.3174.6917-.4822,1.0348a17.1987,17.1987,0,0,1-1.438,2.4231.2472.2472,0,0,0,.25.3946,5.4637,5.4637,0,0,1,2.4956-.119,11.13,11.13,0,0,1-1.8993,6.8407,9.52,9.52,0,0,1-7.7422,3.9546,8.064,8.064,0,0,1-6.7226-4.8476.4821.4821,0,0,0,.2393-.2359.5.5,0,0,0-.2588-.6582c-.0791-.0346-.2481-.1-.4366-.1733-.2666-.1035-.5771-.2227-.6875-.2783a15.2809,15.2809,0,0,1-4.0781-2.6933c4.9348-7.1753,5.9929-16.4248,6.1919-21.1182q.3051-1.6074.5183-3.2363a.4685.4685,0,0,0,.1726-.0572l3.9815-2.9688a.5.5,0,0,0-.5977-.8017l-1.6581,1.2364-1.4342-3.7956a56.1249,56.1249,0,0,0-.2329-5.95,5.664,5.664,0,0,0-.5429-2.227,2.3773,2.3773,0,0,0-2.15-1.337,2.0079,2.0079,0,0,0-.3206.048,18.311,18.311,0,0,1-.3142-5.4523c.1055-1.13.4053-1.8188.917-2.1074a1.7469,1.7469,0,0,1,1.95.4634A6.1783,6.1783,0,0,1,90.108,35.176l9.0593,24.7514a9.3561,9.3561,0,0,0-8.73,7.982.5.5,0,0,0,.99.1455,8.3677,8.3677,0,0,1,8.1189-7.1464.4934.4934,0,0,0,.4319.2793.5071.5071,0,0,0,.1719-.03.4942.4942,0,0,0,.29-.2924.4876.4876,0,0,0,.2952-.3775,17.1266,17.1266,0,0,1,3.4912-8.1641,5.1423,5.1423,0,0,1,1.4571-1.3672,1.8624,1.8624,0,0,1,1.664-.1377,1.9673,1.9673,0,0,1,.9375,1.5371A6.8324,6.8324,0,0,1,108.06,54.5413Zm-18.7715.0267c.0879-.8351.164-1.6725.2141-2.514l.6941,1.8368Z"/>
    <path class="sapIllus_BrandColorSecondary" style="fill:var(--sapIllus_BrandColorSecondary)" d="M71.7946,74.8386a8.9651,8.9651,0,0,1,.81.8718A8.9527,8.9527,0,0,0,71.7946,74.8386Z"/>
    <path class="sapIllus_BrandColorSecondary" style="fill:var(--sapIllus_BrandColorSecondary)" d="M14.7255,123.3588c-.077-.3388-.15-.6806-.2225-1.0224C14.5755,122.6784,14.6486,123.02,14.7255,123.3588Z"/>
    <path class="sapIllus_BrandColorSecondary" style="fill:var(--sapIllus_BrandColorSecondary)" d="M15.38,126.0226c-.0825-.3058-.1552-.6188-.2337-.9275C15.225,125.4039,15.2981,125.7166,15.38,126.0226Z"/>
    <path class="sapIllus_BrandColorSecondary" style="fill:var(--sapIllus_BrandColorSecondary)" d="M70.7711,74.0151a8.1452,8.1452,0,0,1,.9188.7283A8.1362,8.1362,0,0,0,70.7711,74.0151Z"/>
    <path class="sapIllus_BrandColorSecondary" style="fill:var(--sapIllus_BrandColorSecondary)" d="M14.1413,120.5248c-.0563-.3-.1146-.5994-.1679-.902C14.0267,119.9254,14.085,120.2244,14.1413,120.5248Z"/>
    <path class="sapIllus_BrandColorSecondary" style="fill:var(--sapIllus_BrandColorSecondary)" d="M20.1582,137.9941a46.26,46.26,0,0,1-2.4294-5.0277A46.2236,46.2236,0,0,0,20.1582,137.9941Z"/>
    <path class="sapIllus_BrandColorSecondary" style="fill:var(--sapIllus_BrandColorSecondary)" d="M26.65,146.56a37.6225,37.6225,0,0,1-5.1173-6.2948A37.5139,37.5139,0,0,0,26.65,146.56Z"/>
    <path class="sapIllus_BrandColorSecondary" style="fill:var(--sapIllus_BrandColorSecondary)" d="M21.303,139.91q-.4931-.7755-.955-1.5742C20.6543,138.87,20.9747,139.3928,21.303,139.91Z"/>
    <path class="sapIllus_BrandColorSecondary" style="fill:var(--sapIllus_BrandColorSecondary)" d="M17.37,132.0838q-.2649-.6757-.5125-1.3645Q17.1052,131.4081,17.37,132.0838Z"/>
    <path class="sapIllus_BrandColorSecondary" style="fill:var(--sapIllus_BrandColorSecondary)" d="M16.4638,129.5781c-.1388-.4126-.28-.8233-.4106-1.242C16.1834,128.755,16.3253,129.1653,16.4638,129.5781Z"/>
    <path class="sapIllus_BrandColorSecondary" style="fill:var(--sapIllus_BrandColorSecondary)" d="M70.6648,73.9482a7.6826,7.6826,0,0,0-1.0707-.5923c-.0837-.0375-.1722-.0589-.2571-.0933.0848.0344.1733.0557.257.0932A7.657,7.657,0,0,1,70.6648,73.9482Z"/>
    <path class="sapIllus_BrandColorSecondary" style="fill:var(--sapIllus_BrandColorSecondary)" d="M72.6639,75.7857a9.9629,9.9629,0,0,1,.7186,1.0269A9.9521,9.9521,0,0,0,72.6639,75.7857Z"/>
    <path class="sapIllus_BrandColorSecondary" style="fill:var(--sapIllus_BrandColorSecondary)" d="M16.5161,114.078a22.5889,22.5889,0,0,0-2.9858,2.7992c.0028.02.0067.0392.01.0592l-.0094-.0592A22.5872,22.5872,0,0,1,16.5161,114.078Z"/>
    <path class="sapIllus_PatternShadow" style="fill:var(--sapIllus_PatternShadow)" d="M71.3735,74.3382c-6.2856,14.3875-15.7077,28.8393-24.4358,41.9371C40.0544,126.604,33.7292,136.2532,24.54,144.2942c-.5152-.4479,7.0427,7.9744,12.8841,9.69.2354-.2853.4565-.5778.6707-.8633A275.4429,275.4429,0,0,0,72.12,94.3175c1.534-3.61,3.0421-7.3706,2.9752-11.287C75.0059,77.8055,72.4877,76.1718,71.3735,74.3382Z"/>
    <path class="sapIllus_BrandColorSecondary" style="fill:var(--sapIllus_BrandColorSecondary)" d="M53.5486,79.5059a31.1915,31.1915,0,0,1,7.2275-5.5435,13.2214,13.2214,0,0,1,2.4108-.9052,13.2206,13.2206,0,0,0-2.411.9052,31.1929,31.1929,0,0,0-7.2274,5.5436q-6.4854,6.0572-12.9707,12.1218-8.5137,7.9613-17.022,15.9225,8.51-7.9612,17.0221-15.9225Q47.0635,85.5705,53.5486,79.5059Z"/>
    <path class="sapIllus_AccentColor" style="fill:var(--sapIllus_AccentColor)" d="M123.0638,29.6478c-3.2011-1.6854-4.4489-4.9942-5.3207-8.318a.5309.5309,0,0,0-.4448-.39l-.0062-.0008a.5337.5337,0,0,0-.5268.2618c-2.1635,3.7415-4.9091,5.4571-8.0881,7.4436l-.0737.0462a.5255.5255,0,0,0,.1116.9461c2.4866.8433,5.8456,6.1453,5.5293,8.7279a.5285.5285,0,0,0,.39.5736.5428.5428,0,0,0,.0748.0141.5332.5332,0,0,0,.5532-.3152c1.197-2.7571,4.23-7.1647,7.68-8.01a.5265.5265,0,0,0,.1219-.9789Z"/>
    <path class="sapIllus_AccentColor" style="fill:var(--sapIllus_AccentColor)" d="M42.0494,56.8567c-2.2184-.3268-3.635-1.9909-4.8352-3.74a.3319.3319,0,0,0-.3408-.136l-.0037.0008a.3268.3268,0,0,0-.2529.2587c-.4834,2.6075-1.7281,4.1592-3.1694,5.9559l-.0333.0418a.3208.3208,0,0,0-.0377.3442.3312.3312,0,0,0,.3.1814c1.6261-.0161,4.6892,2.3746,5.0421,3.9355a.3294.3294,0,0,0,.3468.2532.3413.3413,0,0,0,.0466-.007.3258.3258,0,0,0,.2572-.295c.1246-1.8409.9768-5.0111,2.813-6.2012a.3223.3223,0,0,0,.1407-.3409A.3283.3283,0,0,0,42.0494,56.8567Z"/>
</svg>