<svg width="582" height="204" xmlns="http://www.w3.org/2000/svg" xmlns:xlink="http://www.w3.org/1999/xlink" xml:space="preserve" overflow="hidden"><defs><clipPath id="clip0"><rect x="349" y="258" width="582" height="204"/></clipPath><linearGradient x1="75.766" y1="90.8191" x2="92.0493" y2="87.6104" gradientUnits="userSpaceOnUse" spreadMethod="pad" id="fill1"><stop offset="0" stop-color="#2256F2"/><stop offset="1" stop-color="#02397A"/></linearGradient><linearGradient x1="98.0454" y1="124.827" x2="108.227" y2="104.651" gradientUnits="userSpaceOnUse" spreadMethod="pad" id="fill2"><stop offset="0" stop-color="#2256F2"/><stop offset="1" stop-color="#02397A"/></linearGradient><linearGradient x1="130.078" y1="87.8116" x2="102.234" y2="89.1176" gradientUnits="userSpaceOnUse" spreadMethod="pad" id="fill3"><stop offset="0" stop-color="#0F5AF2"/><stop offset="1" stop-color="#0BFFD3"/></linearGradient><linearGradient x1="80.5592" y1="120.384" x2="101.538" y2="110.058" gradientUnits="userSpaceOnUse" spreadMethod="pad" id="fill4"><stop offset="0" stop-color="#0F5AF2"/><stop offset="0.0413575" stop-color="#0F5AF2"/><stop offset="1" stop-color="#0BFFD3"/></linearGradient><linearGradient x1="581.219" y1="121.292" x2="531.396" y2="281.667" gradientUnits="userSpaceOnUse" spreadMethod="pad" id="fill5"><stop offset="0" stop-color="#2256F2"/><stop offset="0.568559" stop-color="#02397A"/><stop offset="1" stop-color="#0C2A4E"/></linearGradient><linearGradient x1="217.295" y1="-17.829" x2="446.015" y2="35.4107" gradientUnits="userSpaceOnUse" spreadMethod="pad" id="fill6"><stop offset="0" stop-color="#02397A"/><stop offset="0.407855" stop-color="#0F5AF2"/><stop offset="1" stop-color="#0BFFD3"/></linearGradient><linearGradient x1="205.967" y1="113.98" x2="141.258" y2="37.6407" gradientUnits="userSpaceOnUse" spreadMethod="pad" id="fill7"><stop offset="0" stop-color="#2256F2"/><stop offset="1" stop-color="#02397A"/></linearGradient><linearGradient x1="95.7231" y1="3.92543e-07" x2="162.204" y2="52.437" gradientUnits="userSpaceOnUse" spreadMethod="pad" id="fill8"><stop offset="0" stop-color="#0F5AF2"/><stop offset="1" stop-color="#0BFFD3"/></linearGradient><linearGradient x1="0.786983" y1="88.7876" x2="65.4953" y2="165.126" gradientUnits="userSpaceOnUse" spreadMethod="pad" id="fill9"><stop offset="0" stop-color="#2256F2"/><stop offset="1" stop-color="#02397A"/></linearGradient><linearGradient x1="200.07" y1="164.296" x2="16.342" y2="191.678" gradientUnits="userSpaceOnUse" spreadMethod="pad" id="fill10"><stop offset="0" stop-color="#0F5AF2"/><stop offset="1" stop-color="#0CFFD4"/></linearGradient></defs><g clip-path="url(#clip0)" transform="translate(-349 -258)"><path d="M79.7484 118.088 80.0991 118.291 80.8177 117.876C95.5023 109.398 104.548 93.7292 104.548 76.7729 102.996 76.5262 101.378 76.8055 99.9724 77.6103L82.0894 87.8529C79.9383 89.0855 78.6133 91.3621 78.6133 93.8261L78.6133 114.311C78.6133 115.676 79.0198 116.984 79.7484 118.088Z" fill="url(#fill1)" transform="matrix(1 0 0 1.00025 349 258)"/><path d="M127.188 90.0492 126.837 89.8467 126.119 90.2616C111.434 98.7398 102.388 114.408 102.388 131.364 103.94 131.612 105.558 131.332 106.964 130.527L124.846 120.284C126.998 119.052 128.324 116.775 128.324 114.311L128.324 93.8261C128.324 92.4611 127.917 91.1535 127.188 90.0492Z" fill="url(#fill2)" transform="matrix(1 0 0 1.00025 349 258)"/><path d="M127.406 118.089 127.055 118.291 126.336 117.876C111.652 109.398 102.606 93.7297 102.606 76.7734 104.159 76.5267 105.777 76.8058 107.182 77.6108L125.065 87.8534C127.217 89.086 128.541 91.3624 128.541 93.8266L128.541 114.312C128.541 115.677 128.135 116.984 127.406 118.089Z" fill="url(#fill3)" transform="matrix(1 0 0 1.00025 349 258)"/><path d="M79.4813 90.0991 79.832 89.8966 80.5507 90.3115C95.2352 98.7897 104.281 114.458 104.281 131.414 102.729 131.661 101.111 131.382 99.7053 130.577L81.8222 120.334C79.6713 119.102 78.3462 116.825 78.3462 114.361L78.3462 93.876C78.3462 92.5109 78.7528 91.2034 79.4813 90.0991Z" fill="url(#fill4)" transform="matrix(1 0 0 1.00025 349 258)"/><path d="M452.391 10.1231C453.558 7.11761 456.457 5.13709 459.687 5.13709L502.562 5.13709C505.792 5.13709 508.689 7.11761 509.858 10.1231L580.679 192.363C582.669 197.483 578.885 202.999 573.383 202.999L543.389 202.999C540.105 202.999 537.169 200.95 536.041 197.871L525.527 169.188C524.398 166.109 521.463 164.061 518.178 164.061L442.031 164.061C438.746 164.061 435.811 166.109 434.682 169.188 432.479 175.197 429.301 183.528 426.715 190.246 424.065 197.133 417.442 201.656 410.063 201.656L405.737 201.656C392.287 201.439 383.174 187.878 388.056 175.341L452.391 10.1231ZM451.83 119.555C450.449 124.531 454.2 129.449 459.372 129.449L500.689 129.449C505.907 129.449 509.663 124.451 508.202 119.452L487.003 49.2062C484.796 41.6548 474.051 41.7284 471.949 49.3095L451.83 119.555Z" fill="url(#fill5)" transform="matrix(1 0 0 1.00025 349 258)"/><path d="M233.06 202.103C228.743 202.103 225.245 198.622 225.245 194.328L225.245 12.9121C225.245 8.61808 228.743 5.13709 233.06 5.13709L334.502 5.13709C349.225 5.13709 361.428 7.7212 371.115 12.8894 380.995 18.0577 388.356 25.3314 393.198 34.7107 398.042 43.8986 400.463 54.5222 400.463 66.5813 400.463 79.4062 397.557 90.7954 391.746 100.749 387.248 108.304 381.184 114.483 373.554 119.287 369.896 121.589 368.207 126.195 370.033 130.06 370.111 130.223 370.188 130.374 370.268 130.537 371.501 133.074 382.491 155.599 390.357 169.433 401.907 189.749 410.063 202.999 416.78 200.349 413.832 201.656 410.063 201.656 410.063 201.656L367.477 201.302C361.831 201.251 356.75 197.886 354.434 192.738 346.11 174.231 337.299 156.186 328.691 138.089 327.381 135.416 324.654 133.721 321.666 133.721L276.355 133.721C272.04 133.721 268.541 137.202 268.541 141.496L268.541 194.328C268.541 198.622 265.043 202.103 260.727 202.103L233.06 202.103ZM268.541 88.6671C268.541 92.9611 272.04 96.4421 276.355 96.4421L328.691 96.4421C337.408 96.4421 344.188 93.8579 349.031 88.6898 353.873 83.3302 356.295 79.9081 356.295 70.9116 356.295 65.1692 355.23 60.2881 353.099 56.2685 350.968 52.0573 347.868 48.8989 343.8 46.7933 339.733 44.6878 334.696 43.635 328.691 43.635L276.355 43.635C272.04 43.635 268.541 47.116 268.541 51.41L268.541 88.6671Z" fill="url(#fill6)" transform="matrix(1 0 0 1.00025 349 258)"/><path d="M163.14 94.1207C159.636 94.1207 156.796 91.2804 156.796 87.7768L156.796 77.5995C156.796 72.2094 153.928 67.2299 149.274 64.534L110.574 42.1302C105.918 39.4342 100.184 39.4342 95.5292 42.1302L56.8284 64.534C52.1738 67.2299 49.3061 72.2094 49.3061 77.5995L49.3061 87.7768C49.3061 91.2804 46.4657 94.1207 42.962 94.1207L6.19105 94.1207C2.5817 94.1207-0.317553 91.1004 0.0279937 87.5077 5.61355 29.4328 51.1854 0 103.277 0 154.982 0 200.289 29.4333 205.841 87.509 206.185 91.1014 203.286 94.1207 199.677 94.1207L163.14 94.1207Z" fill="url(#fill7)" transform="matrix(1 0 0 1.00025 349 258)"/><path d="M76.8698 52.9322C90.2739 45.1043 105.236 36.5358 119.266 28.9707 135.76 20.0769 164.843 20.8351 188.738 39.6555 169.897 13.2986 138.032 0 103.277 0 51.1854 0 5.61355 29.4328 0.0279937 87.5077-0.317553 91.1004 2.5817 94.1207 6.19105 94.1207L42.962 94.1207C46.4657 94.1207 49.3061 91.2804 49.3061 87.7768L49.3061 77.5995C49.3061 72.2094 52.1738 67.2299 56.8284 64.534L76.8698 52.9322Z" fill="url(#fill8)" transform="matrix(1 0 0 1.00025 349 258)"/><path d="M43.6132 108.646C47.1169 108.646 49.9571 111.487 49.9571 114.991L49.9571 125.167C49.9571 130.558 52.8248 135.538 57.4795 138.234L96.1794 160.637C100.835 163.333 106.569 163.333 111.224 160.637L149.925 138.234C154.579 135.538 157.447 130.558 157.447 125.167L157.447 114.991C157.447 111.487 160.288 108.646 163.791 108.646L200.562 108.646C204.171 108.646 207.071 111.667 206.726 115.26 201.139 173.334 155.568 202.767 103.476 202.767 51.7705 202.767 6.46447 173.334 0.911791 115.258 0.568323 111.666 3.46725 108.646 7.07599 108.646L43.6132 108.646Z" fill="url(#fill9)" transform="matrix(1 0 0 1.00025 349 258)"/><path d="M129.883 149.835C116.479 157.662 101.517 166.232 87.4868 173.797 70.9926 182.691 41.9097 181.932 18.0141 163.112 36.8569 189.468 68.7209 202.767 103.476 202.767 155.568 202.767 201.139 173.334 206.726 115.26 207.071 111.667 204.171 108.646 200.562 108.646L163.791 108.646C160.288 108.646 157.447 111.487 157.447 114.991L157.447 125.167C157.447 130.558 154.579 135.538 149.925 138.234L129.883 149.835Z" fill="url(#fill10)" transform="matrix(1 0 0 1.00025 349 258)"/></g></svg>